<?xml version="1.0" standalone="no"?>
<!DOCTYPE svg PUBLIC "-//W3C//DTD SVG 1.1//EN" "http://www.w3.org/Graphics/SVG/1.1/DTD/svg11.dtd" >
<svg xmlns="http://www.w3.org/2000/svg">
<metadata></metadata>
<defs>
<font id="ddpregular" horiz-adv-x="1638" >
<font-face units-per-em="2048" ascent="1638" descent="-410" />
<missing-glyph horiz-adv-x="500" />
<glyph unicode="&#x2000;" horiz-adv-x="894" />
<glyph unicode="&#x2001;" horiz-adv-x="1788" />
<glyph unicode="&#x2002;" horiz-adv-x="894" />
<glyph unicode="&#x2003;" horiz-adv-x="1788" />
<glyph unicode="&#x2004;" horiz-adv-x="596" />
<glyph unicode="&#x2005;" horiz-adv-x="447" />
<glyph unicode="&#x2006;" horiz-adv-x="298" />
<glyph unicode="&#x2007;" horiz-adv-x="298" />
<glyph unicode="&#x2008;" horiz-adv-x="223" />
<glyph unicode="&#x2009;" horiz-adv-x="357" />
<glyph unicode="&#x200a;" horiz-adv-x="99" />
<glyph unicode="&#x202f;" horiz-adv-x="357" />
<glyph unicode="&#x205f;" horiz-adv-x="447" />
<glyph unicode="&#x25fc;" horiz-adv-x="1024" d="M0 0z" />
<glyph unicode="&#xf200;" horiz-adv-x="8380" d="M0 624q0 -11 4 -24q0 -25 4 -49q-12 -10 16.5 -32.5t67 -44.5t39.5 -23q-6 -1 11.5 -61t35.5 -122.5t14 -66.5q15 -19 38.5 -4.5t45 43t19.5 39.5q10 10 35.5 105.5t25.5 147.5q48 -4 72 44q18 36 5 57q-12 20 -44 -2q-23 33 -17 34q1 0 5 -1h10q4 -1 10 -3.5t24.5 -11 t36 -17.5t39 -23t38 -29t30 -34t17.5 -38q5 -9 28 28q8 12 24 39q22 37 25 37q9 1 12 -1q1 -1 2 1q2 4 5 9q-2 -12 20 -28t17 -28q0 -1 1 -3q1 -4 7 1q2 2 7 -4.5t11.5 -19.5l13 -26t13.5 -28.5t12 -23.5q-11 7 -27 -10q-22 -23 2 -44q14 -13 44 -20q7 13 0.5 30t-17.5 17 q4 8 4 19l4 -9q1 1 3 0q4 46 4 60q9 30 47 98q10 19 10 15v-3q10 2 19 8.5t8 12.5l12 8q1 9 6.5 20.5t3.5 15.5t-14 9q2 6 2.5 8.5t0.5 3.5t-2 0.5t-3.5 -1t-4.5 0.5t-6 4l2 9q3 9 5 19.5t2.5 21.5t-5.5 18t-18 6l2 2q2 0 2 6q2 1 4 7t4 6h7q8 -13 0 -13l2 -2q-2 -2 -2 -8 q4 4 2 8q13 26 40 -30q8 -16 9 -21q0 1 2 0l4 6q1 -1 3 -1t3 -1q-3 11 18 95q27 111 2 126q-7 4 -18 2v5q104 141 110 147q-8 0 -6 8.5t13 7.5q-3 -3 -3 -10.5t3 -9.5q28 -23 35 -43v-31q-43 -12 -42 -17q1 -6 23 3q38 16 19 45q12 100 8 117l-4 8l5 -1l-1 1q-5 1 -6 2 q2 0 6 -1q11 -1 12 0q0 1 -1 3q-2 9 1 18q-22 0 1 12l7 3q25 -23 25.5 1t-14.5 38q-8 9 -15 -2q-7 0 -1 -5q1 -2 2 -2.5t2.5 -2t2 -3t0.5 -2.5q-2 1 -11 8q-13 12 -13 7q-29 4 -39 8q-16 11 -39.5 2t-44 -23t-21.5 -18q-24 24 -107 19q-26 -2 -27 1q0 2 5 6q-9 -2 -57 -23 t-95.5 -35t-78.5 -9q0 5 5 18t3 17q6 1 8.5 4.5t1.5 8t-3.5 9t-4.5 7.5l-2 3l8 -2q1 8 -3.5 11t-11.5 1.5t-14 -4t-13 -5.5l-5 -3q7 17 -3 16q-14 -1 -28 -19q-8 -10 -4 -15l-8 -6q0 -2 -19.5 -14t-15.5 -27q3 3 7 -55q-13 6 -23 -4q0 3 -1 3q-7 -1 -16 -24q-12 -30 7 -35 q-1 -2 -5.5 -6.5t-6.5 -7.5q3 12 -15 59q-3 1 -8 12t-8 13q-2 -1 -5 -1t-5 1q1 -30 -4.5 -45.5t-14.5 -18.5t-18.5 -2t-17 0.5t-9.5 -8.5q-17 0 -27 -9.5t-15 -22.5t-7 -15q-11 5 -22 12.5t-19.5 12t-19.5 6.5q2 6 -3.5 6.5t-11 -1t-6.5 2.5q13 -1 11 3q-5 5 -15 7v3 q-2 -11 -6 -11q-2 11 -11 -1q-12 -15 -18 -17l-3 5q-1 -1 1 -3q-3 0 -9 -5.5t-5 -11.5h4l-8 -2q-1 -1 -1 -6q-15 -26 -12 -31q2 -14 -8 -14q-3 -6 -9 -10t-5 -8h-2q-1 0 -2 -1.5l-2 -3t-2 -2.5q-7 5 -2 -7q1 -1 2 -3q-5 0 -5.5 -9.5t3.5 -12.5l2 -4q2 4 10 10q1 -1 3.5 -4 t4.5 -5t2 -3q2 1 9 3l23 9h-1q2 0 -1 0q-7 2 -7 4q31 66 41 62q8 -2 -4 -54q29 4 29 -3q1 -5 -31 -29q-25 -18 -23 -25q-1 0 -7 -3q-22 -10 -23 -6q0 1 1 3q-5 1 -6 -2q0 -1 -4 2q-2 -2 -8 22q-4 -6 -4 -16.5t8 -14.5q-18 -3 -33 -22q-12 6 -20 -25q-4 -12 -4 -14 q-2 1 -1 -5q2 -7 4 -11q-30 15 -28 6q4 -15 45 -45q59 -43 67 -18q1 3 1 9q2 -1 5 23v7l3 15v-14q15 -6 39 -36q10 -12 12 -3q2 6 2 17q12 2 21 16.5t14.5 28t11.5 12.5q0 -2 3 -4.5t3 -3.5q29 4 30 0q0 -3 -41 -27q-26 -14 -26 -20q-9 -7 -11 -10.5t0.5 -9.5t2.5 -13 q8 -6 19.5 -6.5t19 1.5t12 0.5t0.5 -10.5t-18 -30q-1 3 -4.5 4t-3.5 2q-7 0 -39.5 8.5t-65 13.5t-66.5 5.5t-56.5 -16t-24.5 -51.5q1 202 81 386.5t214 318t318.5 212.5t387.5 79q204 0 390 -79.5t320.5 -214t214 -320t79.5 -389.5t-79.5 -390t-214 -320.5t-320.5 -214 t-390 -79.5q-203 0 -387.5 78.5t-318 211t-213.5 316t-82 385.5zM262 670q8 1 15 -5t14.5 -19t12.5 -24.5t12.5 -30.5t11.5 -28q-2 -1 -11 -10q-2 0 -29 56.5t-26 60.5zM341 289q7 -18 33 -19t27 23q0 13 -8 31q15 20 1 19q-12 -3 -21 -11q-41 -21 -32 -43zM434 1057 q1 2 10 2q2 2 2 0q-12 -9 -12 -2zM780 461q3 -1 6 -8q-2 0 -6 8zM801 379q2 -6 32 -6q30 -21 29 -14q-2 9 -25 25q-34 23 -36 -5zM831 432q0 -11 21 -22q29 -15 33 8q23 -7 22 7q-2 20 -31 47q-28 27 -29 4q0 -8 5 -23q-3 -2 -8 -4.5t-7 -4t-4 -4.5t-2 -8zM848 227 q-16 -2 14 -28q49 -42 103 -50q32 -5 53 9q47 -47 57 -62q22 6 44.5 41.5t25.5 63.5q-1 2 -2.5 14.5t-4 23t-6.5 11.5q22 5 -39 39q-72 39 -106 41q-17 1 -4 -15l-4 -3q-5 3 -7 0.5t-5 -3.5q0 4 1 6t-2 4t-3.5 2.5t-4.5 1.5l-4 1q-2 -6 -56.5 -44t-49.5 -53zM967 702 q0 5 2 5q-4 17 24 26l17 6q20 -4 19 7q-2 13 -19 22q-29 13 -39 -23q-5 -16 -4 -43zM974 970q-3 -11 5 -26l2 -2q21 -14 27 -20q7 -14 10 -17q-7 14 -10 17q-4 8 -14 23q-8 13 -7 13q-10 23 -13 12zM1001 412l7 -2h10q1 -6 19.5 -16.5t21.5 -16.5q1 0 6 -7q11 -12 12 3 q6 -2 9 -2.5t3.5 0.5l1 2t1.5 2q25 -6 47 -15v-4q4 0 0 4q-15 52 -98 56q-35 2 -40 -4zM1218 1012l13 -2q15 0 51 24t35 37q2 1 11 4.5t16 6t8 1.5q-3 -4 -21 -22q4 0 6 -4q16 16 23 16q0 -2 2.5 -2t4.5 -1.5t1 -4.5h-2q-2 0 -2 -4q7 -2 21.5 -9t17.5 -8q-5 -9 -1 -12 q2 -1 5 2q0 -14 29 -51q-9 0 -9 -10l9 2v-1q-3 -4 0 -7q-3 -6 0 -1q5 9 6 9q0 -2 -4 -10q-1 -2 0 -5t3.5 -8t4.5 -10l-1 -1q-9 -5 4 -7l1 -6q-4 0 -2 -4q-6 2 -8 2q-2 -1 6 -6q-4 0 -6 -2q-1 -2 2 -3h-2q2 -2 4 -2q-4 -4 0 -5t8 -1q16 -26 0 -57q-4 -11 -1.5 -31t3 -28.5 t6.5 -26.5t8.5 -24.5t9.5 -23t9 -22.5q-2 0 -4 2t-4 2q-3 0 2.5 -16.5t12.5 -34t7 -18.5q2 -2 4 -2v-9q7 2 0 9q-7 44 -18 67q16 -10 28.5 -37.5t19.5 -51.5t26.5 -39t50.5 -7l-1 4q12 -3 26.5 -14t22.5 -21l9 -10q10 -7 10 -12q0 -7 13 -49t29 -93.5t30 -107.5t14.5 -90.5 t-18.5 -42.5q-1 -4 -1 -13t-1.5 -14.5t-5.5 -5.5q-4 -29 4 -49q0 -2 6 -2l2 -2l2 2l1 3q2 4 7 9q1 -2 1 -7.5t1 -8.5q-2 -2 -4 -2q2 0 4 -2q0 2 2 3q1 0 0 1q8 7 2 8q-3 3 -3.5 4.5t0 3t-0.5 4.5q0 39 27 83.5t33 68.5q-3 -19 37 36q28 40 36 56q8 3 20.5 29t6.5 34 q4 -4 7 7q7 28 -1 62q-7 30 -22 -1q-1 10 -3.5 13t-6.5 0.5t-7.5 -6.5t-7.5 -9q-4 8 -4 10q9 11 5 10q-1 0 -5 -2q-4 -3 -4 -2l-4 -4v25.5t-4 14.5t-6.5 8.5t-16.5 7.5l-24 12q-18 10 -31.5 13.5t-28 3t-18.5 -0.5q-7 -20 -28.5 -16.5t-31.5 22.5l-2 -2q0 1 1 3.5t1 3.5 q-9 23 -37.5 56.5t-50.5 16.5v27q-1 0 6.5 7t18 15.5t23 16.5t21.5 10t13 -4q-9 -34 7 -31q19 5 51 46q18 25 14 30q-2 -2 -4 3q-2 4 -2 9q2 -1 4 -1q-2 2 -2 5q-6 0 8 11l2 2l2 -2q1 1 6 7.5t10.5 12.5t7.5 7q-4 5 10 10q4 2 14 5q33 11 33.5 20t-22.5 20q3 3 8 2 q2 -1 3 -0.5t0 4.5q-45 0 4 27q5 2 15 7q12 7 16 9q0 -3 1 -4l1 4h-2q0 2 2 2q2 2 -2 10h-2q-2 -2 -3 -2l2 4h-8q-8 -1 -4 17q6 29 1 31t-17 -5q0 3 -6 -4q-1 -2 -2 -2q2 6 2 7l-6 -7q3 6 0 10q-1 1 0 2q-3 0 -6 9q1 5 3 5q6 13 -12 21q-21 10 -30 -13q-7 -15 -3 -44 q2 2 0 -2l-5 -10q-21 -39 -17 -44q-3 2 -2 3l-6 1q8 9 6 18t-6 15.5t-13.5 13.5t-17 11t-17 9t-12.5 7q-7 2 -4.5 16t11 31.5t14.5 20.5q4 -2 3 0l-3 8q10 -3 12.5 2.5t5.5 30.5q23 -8 35 -2q2 -10 14 5q17 23 4 35q-4 4 -10 5q-15 -48 -45 26q-2 4 -2.5 4.5t0.5 -2.5 q2 -2 0.5 -12t3.5 -12l-4 -7q-3 -7 -7.5 -14.5t-8.5 -9.5q0 5 4 9t4 12q-8 4 -14 4q-2 -1 -1 -3t2.5 -4t0.5 -2l-7 7q-3 -7 -26 11q-24 19 -26 4q0 -5 1 -15q-4 -4 -2 -9q-2 0 -2.5 4.5t0.5 9.5v5q-6 -13 -31 29q-11 8 -21 17.5t-14.5 14t-10.5 8t-12.5 2.5t-16.5 -6 q-2 4 -11 0q-61 55 -84 50q0 5 -10.5 16t-17.5 6q-2 4 1 5.5t3 6.5q-13 -4 -20 -5t-12.5 -0.5t-10.5 -0.5q3 -17 -21.5 -38.5t-48.5 -30.5q-6 8 -20 6q0 -12 20 -6q4 -7 -4.5 -25.5t-19.5 -33.5l-11 -15q-1 -1 -2 -3l-1.5 -3t-0.5 -2l21 -33q12 -2 -9 -25q-16 -19 -30 -22 q-17 -3 -19 -4zM2136 121l324 522l-324 512v485l471 -759v-484l-471 -760v484zM2628 121l319 518l-319 516v485l471 -759v-484l-471 -760v484zM3418 637q0 185 87 340.5t245.5 248.5t355.5 93t354.5 -92t243.5 -246t86 -338q0 -139 -51.5 -264.5t-141 -218t-218.5 -147 t-277 -54.5q-197 0 -354.5 92t-243.5 246.5t-86 339.5zM3619 643q0 -141 61.5 -258t174 -186.5t251.5 -69.5q140 0 251.5 68.5t172 184t60.5 255.5t-61.5 256.5t-174 186t-252.5 69.5q-139 0 -250.5 -68t-172 -183.5t-60.5 -254.5zM4903 -27v1332h973v-175h-783v-399h699 v-174h-699v-410h791v-174h-981zM5927 637q0 141 51 267.5t139.5 219t215 147t270.5 54.5q171 0 291 -52t229 -155l-127 -143q-92 87 -185 130.5t-210 43.5q-134 0 -244 -67.5t-172 -183.5t-62 -255q0 -105 37 -200.5t100 -164.5t152 -110t189 -41q123 0 214 44t191 138 l123 -125q-115 -115 -238.5 -174t-293.5 -59q-189 0 -343 91t-240.5 248t-86.5 347zM7197 -27v1332h477q205 0 367 -87.5t250.5 -238.5t88.5 -336q0 -141 -52 -264.5t-144 -213t-224 -141t-286 -51.5h-477zM7389 149h285q227 0 367.5 136.5t140.5 351.5t-140.5 353 t-367.5 138h-285v-979z" />
<glyph unicode="&#xf201;" horiz-adv-x="2320" d="M0 600l746 746l207 -208l208 208l207 -208l208 208l745 -746l-745 -745l-208 207l-207 -207l-208 207l-207 -207zM196 600l550 -550l549 550l-549 550zM1065 145l96 -95l549 550l-549 550l-96 -95l454 -455z" />
<glyph unicode="&#xf202;" horiz-adv-x="2285" d="M0 600l651 651l652 -651l-652 -651zM1030 61l537 539l-537 539l113 112l651 -651l-651 -651zM1522 61l536 539l-536 539l112 112l652 -651l-652 -651z" />
<glyph unicode="&#xf203;" horiz-adv-x="1302" d="M0 600l651 651l652 -651l-652 -651z" />
<glyph unicode="&#xf204;" horiz-adv-x="1515" d="M0 -266v1904h840v-675h676v-1229h-1516zM1004 1126v410l409 -410h-409z" />
<glyph unicode="&#xf205;" horiz-adv-x="1740" d="M0 -307v1945h557v-163h-393v-1618h1413v661h164v-825h-1741zM723 512v1126h627v-1126l-312 381z" />
<glyph unicode="&#xf206;" horiz-adv-x="2072" d="M0 600q0 211 82 403t220.5 331.5t330.5 221.5t403 82t403 -82t331 -221.5t221 -331.5t82 -403q0 -210 -82 -402t-221 -331t-331 -221t-403 -82q-141 0 -275.5 37.5t-248 104t-209 162.5t-162.5 209.5t-104 247.5t-37 275zM143 600q0 -142 43 -275.5t122.5 -242 t185 -191.5t237.5 -131t273 -53l-39 62l39 47l-46 78l-47 59l-4 76l-45 18l-31 31l-77 4l-19 55l-16 21l-10 -23l22 -14l4 -43l-102 8l-64 29l-59 100l-21 37l-2 31l23 51l6 80l82 63l59 41l13 33l16 4l29 14l65 -4l82 17l27 -4h47v-41l20 -35l27 4l90 -35l29 -4l-17 14 l37 29l92 -27l89 19l-3 88l-30 -21l-29 13l-51 12l-16 33l126 67h48v29l-58 18l-2 31l-39 -39l-26 2l-21 -14l-10 -53l-49 -41l-8 -13l6 -16l-17 -33l-8 29l-33 24l-12 48l-6 4l-35 -19l14 -6l-6 -27l15 -22l-27 -16v16l-20 33l-48 35l-6 8l-18 22l-43 -8l-29 -8l4 -21 l-32 -10l-17 -14l-6 -33l-82 -25l-27 31l-22 25l14 33l15 34l12 23l92 -4l4 47l-35 12l2 25l54 -15l14 19l37 14l65 51v23l7 2l-19 6l-2 27h6l-8 16v29l6 24l53 41l27 43l39 33l41 2l41 -6h29l22 -33l23 -2l-9 19l9 4v8l6 -4l10 6l8 49l-24 19l-17 61l21 27l8 -43l20 -45 l33 -33l6 22l47 11l-20 8l-37 37l4 24l84 -69l2 12l-43 29l10 30l11 23l-50 6l-20 24l-8 41l-17 37l31 15l47 -29l-12 18v21l-16 10v25l38 -4l2 6q-148 55 -307 55q-102 0 -200 -25l-17 -16l-14 -35h41l76 -26l-17 -23l62 -10l-19 -23l13 -18l-78 -35l-21 -65l-28 -17 q-6 4 -12 5.5t-11 -3.5l2 -30l-31 -7l-65 -8l-51 -16l-60 -4l-20 26l76 76l43 -6l-23 49l49 -8l33 31l31 36l-13 39l-8 25l-55 -33l8 43l-41 6l-41 -28l60 -4l-7 -39l-41 -43l-61 -37h-41l8 45h51l27 49l-39 16q-79 -45 -143 -100l2 -4l82 25l-2 -27l-29 -19l27 -18l-45 -41 l-23 -74l-49 -53l-23 -39l-30 12q-6 37 4 37l37 6l-23 27q-6 11 -10 23l-6 18h-23v-49l-20 -2l4 -37l-25 6l6 29l-10 8q-160 -229 -160 -510zM963 926h14l12 -13l-12 25zM977 858h20l31 -12l8 22l39 11l-2 28l43 27l-4 27l39 10l-18 6l-50 -6l11 51l4 25l-17 2l-10 -29 q-4 -11 -6 -21l-2 -12l-29 -37l2 -57l-22 -14l-15 14l-2 6l-2 4l-6 -14l-12 2v-33zM999 684l5 -4v4h20l-10 41zM1282 483l47 -102l37 -37l29 -63l94 -62l39 8l65 31l-18 -55l-39 -105l-125 -164l39 -94l-107 -80q260 95 423 325t163 515q0 58 -6 113l-18 -54l-4 -110v-37 l-31 -29l-62 97l-28 -15l-47 25l-82 -58l-31 11l-53 -17l-35 17l-37 8l14 -43l54 -57l34 41l19 34l16 -28l29 -25l-37 -94l-76 -94l-61 -41l-17 67l-51 25l-24 37l-74 80z" />
<glyph unicode="&#xf207;" horiz-adv-x="1912" d="M0 152q0 67 131 143q163 -80 379 -122t446 -42q231 0 447.5 42t378.5 122q131 -75 131 -143q0 -39 -42.5 -82t-127 -84t-197.5 -74.5t-267.5 -53.5t-322.5 -20t-322.5 20t-267 53.5t-197 74.5t-127 84t-42.5 82zM0 668q0 70 131 143q163 -80 379 -122t446 -42 q231 0 448 42t380 122q129 -72 129 -143q0 -49 -69 -102.5t-188.5 -101t-305 -78t-394.5 -30.5q-168 0 -322.5 20t-267 53t-197 74t-127 84t-42.5 81zM0 1184q0 39 42.5 82t127 84t197 74t267 53t322.5 20q209 0 394.5 -30.5t305 -77.5t188.5 -101.5t69 -103.5t-69 -102.5 t-188.5 -101t-305 -78t-394.5 -30.5q-168 0 -322.5 20t-267 53t-197 74t-127 84t-42.5 81z" />
<glyph unicode="&#xf208;" horiz-adv-x="1982" d="M0 -88v205h410v-205h-410zM0 -190h410v-205h-410v205zM0 219v205h410v-205h-410zM242 625v1013h1065v-675h675v-1270h-417v164h254v942h-676v676h-737v-850h-164zM512 -88v205h410v-205h-410zM512 -190h410v-205h-410v205zM512 219v205h410v-205h-410zM1024 -88v205h410 v-205h-410zM1024 -190h410v-205h-410v205zM1024 219v205h410v-205h-410zM1470 1126v410l410 -410h-410z" />
<glyph unicode="&#xf209;" horiz-adv-x="1982" d="M0 -88v205h410v-205h-410zM0 -190h410v-205h-410v205zM0 219v205h410v-205h-410zM242 625v1013h1065v-675h675v-1270h-417v164h254v942h-676v676h-737v-850h-164zM512 -88v205h410v-205h-410zM512 -190h410v-205h-410v205zM512 219v205h410v-205h-410zM1024 -88v205h410 v-205h-410zM1024 -190h410v-205h-410v205zM1024 219v205h410v-205h-410zM1470 1126v410l410 -410h-410z" />
<glyph unicode="&#xf210;" horiz-adv-x="2164" d="M0 -262l430 661l467 -497l186 235l-186 146l586 233l-92 -622l-183 145l-301 -379l-454 485l-320 -493zM424 625v1013h1065v-675h676v-1270h-418v164h254v942h-676v676h-737v-850h-164zM1653 1126v410l409 -410h-409z" />
<glyph unicode="&#xf211;" horiz-adv-x="2164" d="M0 -262l430 661l467 -497l186 235l-186 146l586 233l-92 -622l-183 145l-301 -379l-454 485l-320 -493zM424 625v1013h1065v-675h676v-1270h-418v164h254v942h-676v676h-737v-850h-164zM1653 1126v410l409 -410h-409z" />
<glyph unicode="&#xf219;" horiz-adv-x="1673" d="M0 616v207h1260l-76 68l-383 381l160 162l712 -719l-717 -715l-153 154l391 391l78 71h-1272z" />
<glyph unicode="&#xf220;" horiz-adv-x="1458" d="M0 494l152 149l391 -393l69 -74v1258h236v-1258l67 74l392 393l151 -149l-729 -725z" />
<glyph unicode="&#xf221;" horiz-adv-x="1673" d="M0 719l717 715l155 -154l-389 -389l-75 -68h1265v-207h-1261l71 -67l391 -387l-159 -162z" />
<glyph unicode="&#xf222;" horiz-adv-x="1673" d="M0 616v207h1260l-76 68l-383 381l160 162l712 -719l-717 -715l-153 154l391 391l78 71h-1272z" />
<glyph unicode="&#xf223;" horiz-adv-x="1458" d="M0 954l729 721l729 -721l-151 -151l-392 391l-67 76v-1258h-238v1258l-67 -76l-391 -391z" />
<glyph unicode="&#xf224;" horiz-adv-x="1441" d="M0 967l156 155l565 -563l563 563l158 -155l-721 -721z" />
<glyph unicode="&#xf225;" horiz-adv-x="876" d="M0 721l721 721l156 -158l-564 -563l564 -565l-156 -156z" />
<glyph unicode="&#xf226;" horiz-adv-x="876" d="M0 156l565 565l-565 563l156 158l721 -721l-721 -721z" />
<glyph unicode="&#xf227;" horiz-adv-x="1441" d="M0 401l721 721l721 -721l-158 -155l-563 565l-565 -565z" />
<glyph unicode="&#xf228;" horiz-adv-x="1703" d="M0 705q0 166 64 323t186 279t279 185.5t323 63.5q167 0 323.5 -63.5t280.5 -185.5q122 -122 185 -279t63 -323q0 -168 -63 -324.5t-185 -280.5q-124 -122 -280 -184.5t-324 -62.5q-167 0 -323.5 62.5t-278.5 184.5q-123 124 -186.5 281t-63.5 324zM311 379l217 -217 l324 325l326 -325l217 217l-326 326l326 323l-217 217l-326 -323l-324 323l-217 -217l326 -323z" />
<glyph unicode="&#xf229;" horiz-adv-x="1083" d="M0 379l326 326l-326 323l217 217l324 -323l325 323l217 -217l-325 -323l325 -326l-217 -217l-325 325l-324 -325z" />
<glyph unicode="&#xf230;" horiz-adv-x="2000" d="M0 883v739h733l-258 -260l414 -418l-213 -215l-416 418zM2 342l258 -260l414 418l215 -215l-416 -418l262 -264h-733v739zM1112 285l215 217l414 -418l260 262v-737h-731l256 258zM1114 940l414 418l-260 262h733v-737l-258 258l-414 -416z" />
<glyph unicode="&#xf231;" horiz-adv-x="1646" d="M0 629q0 125 88 213t213 88q99 0 180 -62l566 295q0 1 -1.5 5t-1.5 6q0 124 88.5 212.5t213.5 88.5q124 0 212.5 -88.5t88.5 -212.5q0 -125 -88.5 -213.5t-212.5 -88.5q-100 0 -181 62l-563 -293l569 -297q77 55 175 55q124 0 212.5 -88.5t88.5 -212.5t-88 -211.5 t-213 -87.5t-213.5 87.5t-88.5 211.5q0 4 1.5 11t1.5 10l-549 284q-85 -75 -197 -75q-125 0 -213 88t-88 213z" />
<glyph unicode="&#xf232;" horiz-adv-x="1536" d="M0 0v307h1530v-307h-1530zM6 1640h1530l-764 -1060z" />
<glyph unicode="&#xf233;" horiz-adv-x="1972" d="M0 69v985l624 -531zM0 1279h1973l-987 -842zM1 -150l761 555l224 -191l224 191l761 -555h-1970zM1348 523l625 532v-988z" />
<glyph unicode="&#xf234;" horiz-adv-x="1589" d="M0 692q0 138 53.5 264t144.5 217t216.5 145t263.5 54q139 0 265 -54t217 -145t144.5 -217t53.5 -264q0 -210 -119 -385l350 -350l-174 -174l-352 350q-172 -119 -385 -119q-138 0 -263.5 53.5t-216.5 144.5t-144.5 216.5t-53.5 263.5zM248 692q0 -178 127 -305t305 -127 t305 127t127 305q0 180 -126.5 306t-305.5 126t-305.5 -126t-126.5 -306z" />
<glyph unicode="&#xf235;" horiz-adv-x="1687" d="M0 -2v307h1688v-307h-1688zM0 612v308h1688v-308h-1688zM0 1225v307h1688v-307h-1688z" />
<glyph unicode="&#xf236;" horiz-adv-x="1224" d="M0 451l309 344v575l-155 156l53 112h811l51 -112l-154 -156v-575l310 -344l-78 -78h-424l-82 -719h-67l-82 719h-414zM399 834h119v497h-119v-497z" />
<glyph unicode="&#xf237;" horiz-adv-x="1730" d="M0 1182q0 128 90 215l156 153q88 88 215 88q130 0 217 -90l217 -219q88 -88 88 -215q0 -129 -92 -221l92 -92q92 92 221 92q127 0 215 -88l221 -221q91 -91 91 -217q0 -121 -91 -215l-157 -154q-85 -88 -215 -88q-125 0 -215 90l-219 219q-89 89 -89 215q0 129 95 221 l-95 95q-92 -95 -219 -95t-217 90l-221 220q-88 91 -88 217zM203 1182q0 -44 28 -72l222 -221q29 -29 71 -29q45 0 78 33q-3 3 -15.5 14.5t-16.5 15.5t-13.5 14.5t-13.5 17t-9.5 16.5t-7.5 20t-2 21q0 42 30.5 72t72.5 30q15 0 28 -3.5t27 -14t20.5 -15.5t23 -22.5 t19.5 -20.5q35 30 35 76q0 44 -28 72l-220 221q-29 29 -71 29q-43 0 -72 -29l-158 -154q-28 -31 -28 -71zM948 434q0 -43 29 -72l219 -219q25 -28 72 -28q45 0 71 26l158 156q29 29 29 70t-29 73l-221 219q-28 31 -72 31q-43 0 -78 -35q2 -2 21 -19t23.5 -22.5t15.5 -20 t14.5 -27.5t3.5 -29q0 -41 -30.5 -71t-71.5 -30q-15 0 -28 3.5t-28 14.5t-20 15t-23.5 23t-19.5 20q-35 -30 -35 -78z" />
<glyph unicode="&#xf238;" horiz-adv-x="1976" d="M0 606q0 201 78 383.5t210.5 315t315 210.5t383.5 78t384.5 -78t316 -210.5t210.5 -315t78 -383.5q0 -202 -78 -384.5t-210.5 -314.5t-315.5 -210t-385 -78q-201 0 -383.5 78t-315 210t-210.5 315t-78 384zM809 1161q0 -75 49 -119.5t129 -44.5q83 0 132.5 44.5 t49.5 119.5q0 76 -49 121t-129 45q-83 0 -132.5 -45t-49.5 -121zM838 -78h303v897h-303v-897z" />
<glyph unicode="&#xf239;" horiz-adv-x="1433" d="M0 756v368h369v-368h-369zM98 -82v723h164v-723h-164zM98 1229v149h164v-149h-164zM532 223v369h369v-369h-369zM631 -82v191h164v-191h-164zM631 696v682h164v-682h-164zM1065 612v369h369v-369h-369zM1163 -82v580h164v-580h-164zM1163 1085v293h164v-293h-164z" />
<glyph unicode="&#xf240;" horiz-adv-x="1439" d="M0 426l512 422v-318h717v627h-268v211h479v-1049h-928v-315z" />
<glyph unicode="&#xf241;" horiz-adv-x="1425" d="M0 670q0 79 56.5 135.5t136.5 56.5q79 0 135.5 -56t56.5 -136t-56.5 -136.5t-135.5 -56.5t-136 56.5t-57 136.5zM520 670q0 79 56.5 135.5t136.5 56.5q79 0 135.5 -56t56.5 -136t-56.5 -136.5t-135.5 -56.5t-136 56.5t-57 136.5zM1040 670q0 79 56.5 135.5t136.5 56.5 q79 0 135.5 -56t56.5 -136t-56.5 -136.5t-135.5 -56.5t-136 56.5t-57 136.5z" />
<glyph unicode="&#xf242;" horiz-adv-x="1939" d="M8 952q19 60 74.5 88.5t115.5 8.5q58 -19 86.5 -75t9.5 -116q-20 -59 -76 -87t-114 -9q-60 20 -88 75.5t-8 114.5zM98.5 211q12.5 61 64.5 96q52 34 113.5 20.5t95.5 -65.5q35 -53 22.5 -113.5t-65.5 -95.5q-53 -34 -113.5 -21t-95.5 66q-34 52 -21.5 113zM313 498 q-9 41 13.5 76t62.5 44t75.5 -13t44.5 -62t-13 -76t-62 -45q-41 -9 -76.5 13.5t-44.5 62.5zM420 984q-4 41 22 73q26 34 67.5 38t73.5 -22t36.5 -67.5t-21.5 -73.5q-25 -32 -66.5 -36t-73.5 22q-34 25 -38 66zM516 1380q-22 59 4 116t84 79q60 22 116 -3.5t78 -84.5t-4 -116 t-84 -79q-59 -22 -115.5 4t-78.5 84zM518 643q0 26 18.5 45t44.5 19q28 1 47 -17.5t19 -46.5q0 -26 -18.5 -44.5t-45.5 -20.5q-27 0 -46 19t-19 46zM619 106.5q-14 38.5 5 75.5q17 38 56.5 52t76.5 -5q38 -17 52 -56.5t-5 -76.5q-19 -38 -57.5 -52t-75.5 5q-38 19 -52 57.5z M650.5 933.5q2.5 26.5 24.5 43.5q20 17 46.5 14.5t43.5 -24.5q17 -20 14.5 -46.5t-24.5 -43.5q-20 -17 -46.5 -14.5t-43.5 22.5q-17 22 -14.5 48.5zM654.5 353.5q-2.5 25.5 14.5 47.5q15 21 42 24.5t48 -11.5q22 -17 25 -43.5t-14 -48.5q-15 -21 -42 -24.5t-49 13.5 t-24.5 42.5zM679 713q4 17 19.5 25t30.5 3q17 -4 25 -19t3 -30q-4 -17 -19 -25t-30 -3q-17 4 -25.5 19t-3.5 30zM714 515.5q3 16.5 17 27.5q12 9 29 6.5t26 -14.5q10 -14 8 -30.5t-16 -27.5q-14 -9 -30.5 -6.5t-27.5 14.5q-9 14 -6 30.5zM724 -182q5 62 53 101.5t111 33.5 q62 -5 102 -53t34 -111q-5 -62 -53 -101.5t-111 -33.5q-62 5 -102 53t-34 111zM808 836q-6 15 1 30t22 23q15 6 30 -1t23 -22q6 -15 -0.5 -30t-21.5 -23q-15 -6 -30.5 1t-23.5 22zM858 1206q0 41 29.5 71t70.5 30t70.5 -30t29.5 -71t-29.5 -70.5t-70.5 -29.5t-70.5 29.5 t-29.5 70.5zM886 420q1 17 13.5 28t29.5 11q17 -1 28 -13.5t11 -29.5q-1 -17 -13.5 -28t-29.5 -11q-17 1 -28 13.5t-11 29.5zM958 1012q4 26 27 40.5t49 8.5q26 -4 40.5 -27t8.5 -49q-4 -26 -27 -40.5t-49 -8.5t-40.5 28t-8.5 48zM964 281q-6 26 7.5 48.5t39.5 28.5t49 -8.5 t29 -40.5q6 -25 -7.5 -47.5t-39.5 -28.5q-26 -7 -49 7t-29 41zM1002.5 831q-4.5 16 2.5 31t23.5 20t31.5 -3q14 -8 19 -24.5t-2 -31.5q-8 -14 -24.5 -18.5t-31.5 2.5q-14 8 -18.5 24zM1066 493q-1 17 9 29q11 12 28 13t29 -9q12 -11 13 -28t-9 -29q-11 -12 -28 -13t-29 9 q-12 11 -13 28zM1107 172.5q14 39.5 52 56.5q37 19 75.5 5t57.5 -52q19 -37 5 -75.5t-52 -57.5q-37 -19 -76.5 -5t-56.5 52q-19 37 -5 76.5zM1118 678q-3 17 6 30.5t26 16.5q15 3 30 -6.5t18 -26.5t-6.5 -30.5t-26.5 -16.5t-30.5 6.5t-16.5 26.5zM1204 826.5q8 25.5 32 37.5 q25 11 51 2.5t36 -32.5q12 -23 3 -48.5t-32 -37.5q-25 -12 -50.5 -3.5t-35.5 33.5q-12 23 -4 48.5zM1208.5 469.5q-9.5 25.5 1.5 50.5q12 24 37.5 33t48.5 -2q25 -10 34 -35.5t-3 -50.5q-10 -24 -35.5 -33t-48.5 2q-25 10 -34.5 35.5zM1239.5 1329.5q-14.5 60.5 17.5 114.5 t92.5 68.5t114.5 -17.5t68.5 -92.5t-17.5 -114.5t-92.5 -68.5t-114.5 17.5t-68.5 92.5zM1296.5 1005.5q4.5 41.5 38.5 67.5q32 26 73 22t66 -38q26 -32 22 -73t-36 -66q-32 -26 -74 -22t-68 36t-21.5 73.5zM1406 543q9 40 44.5 62t76.5 13q40 -9 62.5 -44t13.5 -76 q-9 -40 -45 -62.5t-76 -13.5t-62.5 45t-13.5 76zM1410.5 57q-1.5 63 41.5 107t106 45.5t107 -41.5q46 -43 47 -106t-43 -107q-43 -44 -105 -45.5t-108 41.5q-44 43 -45.5 106zM1638 735q-8 62 30 111.5t101 58.5q62 8 111.5 -30t56.5 -101q9 -61 -29 -110.5t-100 -57.5 q-62 -9 -111.5 28.5t-58.5 100.5z" />
<glyph unicode="&#xf243;" horiz-adv-x="3172" d="M0 786h970q0 -92 -65 -171t-176.5 -124.5t-243.5 -45.5t-243.5 45.5t-176.5 124.5t-65 171zM512 1021l1008 367l14 183h98l11 -138l976 355l32 -89l-994 -453l83 -1061l528 -67l3 -118h-1371v118l531 67l75 1010l-961 -263zM2202 1412h970q0 -92 -65 -171t-176.5 -124.5 t-243.5 -45.5t-243.5 45.5t-176.5 124.5t-65 171z" />
<glyph unicode="&#xf244;" horiz-adv-x="3172" d="M0 1099h970q0 -92 -65 -171t-176.5 -124.5t-243.5 -45.5t-243.5 45.5t-176.5 124.5t-65 171zM465 1313v95h1057l12 163h98l13 -163h1062l-2 -95l-1047 -84l82 -1044l528 -67l3 -118h-1371v118l531 67l77 1044zM2202 1099h970q0 -92 -65 -171t-176.5 -124.5t-243.5 -45.5 t-243.5 45.5t-176.5 124.5t-65 171z" />
<glyph unicode="&#xf245;" horiz-adv-x="884" d="M0 164v1114l885 -557z" />
<glyph unicode="&#xf300;" horiz-adv-x="1665" d="M0 604q0 169 66 323.5t177.5 266.5t266 178t323.5 66t323.5 -66t265.5 -178t177 -266.5t66 -323.5t-66 -323t-177 -265.5t-265.5 -177t-323.5 -65.5q-170 0 -324 65.5t-265.5 177t-177.5 265.5t-66 323zM264 604q0 -153 76.5 -284t207.5 -207.5t285 -76.5 q115 0 220.5 45.5t181.5 121.5t121 181t45 220q0 116 -45 221.5t-121 182t-181.5 121.5t-220.5 45t-220.5 -45t-182 -121.5t-121.5 -182t-45 -221.5zM541 604q0 122 85.5 208t206.5 86t206.5 -86t85.5 -208q0 -119 -85.5 -204.5t-206.5 -85.5t-206.5 85.5t-85.5 204.5z" />
<glyph unicode="&#xf301;" horiz-adv-x="1099" d="M0 266l369 -123l120 -120v-248l-245 63l-123 123zM0 760l369 -125l120 -121v-248l-245 64l-123 123zM0 1249l369 -123l120 -122v-246l-245 61l-123 125zM367 1372l184 246l182 -246l-182 -307zM610 23l121 120l369 123l-121 -305l-123 -123l-246 -63v248zM610 266v248 l121 121l369 125l-121 -307l-123 -123zM610 758v246l121 122l369 123l-121 -305l-123 -125z" />
<glyph unicode="&#xf302;" horiz-adv-x="2103" d="M221 -122l420 243l553 -3l69 -68v-74h-371l-3 -56h441v80l456 428h112l52 -63l-630 -666h-686l-224 -102zM348 914q0 147 57 281t154 231t231 154.5t281 57.5h1q196 0 362.5 -97t263.5 -263.5t97 -363.5t-97 -363.5t-263.5 -263.5t-363.5 -97q-147 0 -281 57.5 t-231 154.5t-154 231t-57 281zM503 914q0 -94 29 -179q79 35 181 59q-7 68 -7 120q0 64 10 139q-97 22 -179 57q-34 -94 -34 -196zM563 659q44 -89 116.5 -157.5t163.5 -108.5q-82 140 -116 310q-104 -19 -164 -44zM571 1185q59 -23 160 -41q36 162 112 291 q-180 -79 -272 -250zM803 914q0 -48 6 -102q107 16 211 19v186q-111 3 -208 18q-9 -79 -9 -121zM823 718q39 -218 117 -357q45 -10 80 -13v386q-104 -3 -197 -16zM827 1129q97 -12 193 -15v366q-36 -3 -81 -13q-72 -128 -112 -338zM1123 348q36 3 81 13q76 136 116 357 q-93 13 -197 16v-386zM1123 831q104 -3 211 -19q6 56 6 102q0 44 -9 121q-97 -15 -208 -18v-186zM1123 1114q96 3 193 15q-42 214 -113 339q-45 10 -80 13v-367zM1289 1440q83 -138 121 -297q96 17 162 42q-97 178 -283 255zM1300 393q91 40 163.5 108.5t116.5 157.5 q-59 24 -165 44q-35 -172 -115 -310zM1427 1053q10 -75 10 -139q0 -52 -7 -120q102 -24 181 -59q29 85 29 179q0 102 -34 196q-77 -34 -179 -57z" />
<glyph unicode="&#xf303;" horiz-adv-x="1740" d="M0 0v1475h184v-1291h1477v-184h-1661zM240 700l430 408l319 -324l326 308l-141 145l567 154l-152 -580l-149 152l-455 -437l-317 316l-295 -275z" />
<glyph unicode="&#xf304;" horiz-adv-x="1232" d="M0 236v1084l305 232l927 -311v-1144l-92 28v1055l-827 302l-225 -170l733 -417v-1171zM189 1333l36 28l724 -346v-1072l-60 10l2 1036zM271 1396l37 28l760 -323v-1056l-61 11l2 1018z" />
<glyph unicode="&#xf305;" horiz-adv-x="1517" d="M0 94l513 393h-428l486 349h-317l457 327h-205l252 262l254 -262h-205l457 -327h-317l486 -349h-427l512 -393h-614v-241h-292v241h-612z" />
<glyph unicode="&#xf306;" horiz-adv-x="1843" d="M0 -225l803 1478l248 -354l792 719l-788 -1557l-246 431z" />
<glyph unicode="&#xf307;" horiz-adv-x="1843" d="M0 385l70 33l352 -463l1286 586l45 -60l-1360 -618zM43 567l72 33l350 -463l1288 586l43 -59l-1360 -619zM66 788l1359 619l418 -555l-1360 -619zM690 836q0 -95 76.5 -161.5t185.5 -66.5t187 66.5t78 161.5q0 93 -78 159t-187 66t-185.5 -65.5t-76.5 -159.5z" />
<glyph unicode="&#xf308;" horiz-adv-x="2052" d="M59 -188l200 678h500l-491 413l597 712l920 -772l-297 -353h286l199 -678h-1914zM422 107h1188l-35 156h-277l-111 -132l-158 132h-572zM441 918l731 -614l439 524l-731 614zM884 783l138 44l-29 318l102 2l82 -431l-264 -39z" />
<glyph unicode="&#xf309;" horiz-adv-x="1652" d="M0 698v445h403v105q0 75 52 133t139 58h464q75 0 133 -51.5t58 -139.5v-105h403v-445h-212v168h-337v-168h-554v168h-337v-168h-212zM64 0v573h148v-171h337v171h554v-171h337v171h148v-573h-1524zM318 507v256h126v-256h-126zM573 1143h506v64q0 28 -15.5 44t-31.5 18 l-15 2h-382q-28 0 -43.5 -16t-17.5 -32l-1 -16v-64zM1208 507v256h127v-256h-127z" />
<glyph unicode="&#xf310;" horiz-adv-x="1736" d="M0.5 1339q6.5 59 24 98t46.5 68q70 70 190 70q117 0 274 -71t333 -199q175 128 333 199t275 71q119 0 189 -70q152 -152 -13 -497q-70 -146 -184 -301q90 -122 151.5 -237.5t93.5 -221.5t21 -194t-69 -146q-70 -70 -189 -70q-117 0 -275 71t-333 199q-176 -128 -333 -199 t-274 -71q-120 0 -190 70q-58 58 -69 146t21 194t93.5 221.5t151.5 237.5q-111 151 -183 301q-49 102 -70 187t-14.5 144zM170 1331.5q-4 -35.5 12.5 -101.5t56.5 -149q48 -103 141 -234q83 99 166 182q97 94 183 166q-145 103 -268.5 156.5t-200.5 53.5q-48 0 -69 -21 q-17 -17 -21 -52.5zM191 29q19 -21 70 -21q76 0 199 54t269 156q-86 72 -183 166q-85 85 -168 184q-135 -192 -184 -342.5t-3 -196.5zM486 708q97 -119 182 -202q88 -90 200 -181q117 96 201 181q80 78 181 202q-97 115 -181 199q-89 91 -201 182q-107 -87 -200 -182 q-108 -108 -182 -199zM752 707q0 48 34 81.5t82 33.5t82 -33.5t34 -81.5t-34 -82t-82 -34t-82 34t-34 82zM1007 218q146 -102 269.5 -156t199.5 -54q48 0 69 21q46 46 -3 196.5t-184 342.5q-83 -99 -168 -184q-97 -94 -183 -166zM1007 1195q86 -72 183 -166 q101 -104 166 -182q93 131 141 234q39 83 55.5 149t13 101.5t-20.5 52.5q-19 21 -69 21q-77 0 -200.5 -53.5t-268.5 -156.5z" />
<glyph unicode="&#xf311;" horiz-adv-x="1759" d="M0 563v486l86 87h302l89 -87v-486l-89 -90v-473h-299v473h-3zM95 1370q0 58 42 99.5t100 41.5q60 0 102.5 -41.5t42.5 -99.5q0 -60 -42.5 -102.5t-102.5 -42.5q-58 0 -100 42.5t-42 102.5zM601 520v554l102 102h351l105 -102v-554l-105 -105v-524h-351v524zM712 1437 q0 69 48.5 118t117.5 49t118 -49t49 -118t-49 -117.5t-118 -48.5t-117.5 48.5t-48.5 117.5zM1282 563v486l86 87h302l89 -87v-486l-89 -90v-473h-299v473h-3zM1377 1370q0 58 42 99.5t100 41.5q60 0 102.5 -41.5t42.5 -99.5q0 -60 -42.5 -102.5t-102.5 -42.5 q-58 0 -100 42.5t-42 102.5z" />
<glyph unicode="&#xf312;" horiz-adv-x="1722" d="M0 260v135l290 287l478 -477l-288 -291h-135zM391 786l463 462l477 -480l-462 -462zM643 785.5q0 -20.5 16 -33.5q13 -16 34 -16t34 16q16 14 16 34t-16 34q-13 16 -34 16t-34 -16q-16 -14 -16 -34.5zM804 944.5q0 -19.5 13 -35.5q16 -13 36.5 -13t33.5 13q16 16 16 35.5 t-16 35.5q-13 14 -33.5 14t-36.5 -14q-13 -16 -13 -35.5zM822 609q0 -19 13 -35q16 -14 36.5 -14t34.5 14q16 16 16 35t-16 35q-14 14 -34.5 14t-36.5 -14q-13 -16 -13 -35zM954 1349l288 290h135l345 -345v-135l-290 -288zM978 768q0 -20 14 -34q16 -16 37 -16t34 16 q16 14 16 34t-16 34q-13 16 -34 16t-37 -16q-14 -14 -14 -34z" />
<glyph unicode="&#xf400;" d="M0 -123v696h696v-696h-696zM0 819v697h696v-697h-696zM942 -123v696h696v-696h-696zM942 819v697h696v-697h-696z" />
<glyph unicode="&#xf401;" d="M0 -123v1639h696v-1639h-696zM942 -123v1639h696v-1639h-696z" />
<glyph unicode="&#xf402;" d="M0 -123v696h1638v-696h-1638zM0 819v697h1638v-697h-1638z" />
<glyph unicode="&#xf403;" d="M0 -123v696h696v-696h-696zM0 819v697h1638v-697h-1638zM942 -123v696h696v-696h-696z" />
</font>
</defs>
</svg>
