<svg xmlns="http://www.w3.org/2000/svg" viewBox="0 0 456.47 285.9"><defs><style>.a{fill:#009edb;}.b{fill:#72c6ef;}.c{fill:#badaf3;}</style></defs><path class="a" d="M153.48,72.27l-8.12,29.42a77.19,77.19,0,1,1-79.21,80.63l-29.83-8.23c-.07,1.57-.11,3.16-.11,4.75A107.06,107.06,0,1,0,153.48,72.27Z"/><polygon class="b" points="169.53 126.28 140.81 118.33 132.46 148.97 122.32 186.14 151.04 194.08 161.13 157.06 169.53 126.28"/><polygon class="c" points="169.53 126.28 140.81 118.33 132.46 149.11 161.13 157.06 169.53 126.28"/><polygon class="b" points="99.18 106.85 80.37 174.57 109.09 182.51 127.89 114.82 139.11 74.44 110.39 66.49 99.18 106.85"/><polygon class="c" points="112.1 60.26 99.18 106.85 127.89 114.82 140.82 68.19 112.1 60.26"/><polygon class="b" points="83.44 0 60.92 81.82 48.56 126.72 9.98 75.31 0 111.65 38.52 163.21 38.51 163.21 67.23 171.16 89.64 89.75 112.16 7.94 83.44 0"/><polygon class="c" points="83.44 0 60.92 81.82 89.64 89.75 112.16 7.94 83.44 0"/><path class="a" d="M279.77,20.44h5.55l5,12.57,4.82-12.33h.24L300.17,33l5-12.57h5.54l-10.06,25h-.89L295.2,34.56l-4.47,11h-.86Z"/><path class="a" d="M316.77,43.62a11.5,11.5,0,0,1-4.33-4.7,14.07,14.07,0,0,1,0-12.4,11.5,11.5,0,0,1,4.33-4.7,14.28,14.28,0,0,1,13.88,0,11.41,11.41,0,0,1,4.32,4.7,14,14,0,0,1,0,12.4,11.41,11.41,0,0,1-4.32,4.7,14.35,14.35,0,0,1-13.88,0Zm11-4.39a6.93,6.93,0,0,0,2.53-2.82,8.64,8.64,0,0,0,0-7.43,6.74,6.74,0,0,0-2.53-2.82,7.41,7.41,0,0,0-4-1.07,7.33,7.33,0,0,0-4,1.07,6.77,6.77,0,0,0-2.51,2.8,8.68,8.68,0,0,0,0,7.45,7,7,0,0,0,2.51,2.82,7.25,7.25,0,0,0,4,1.08A7.33,7.33,0,0,0,327.74,39.23Z"/><path class="a" d="M347.2,35.66h-2.38v9.41h-4.93V20.44h9.72a7.07,7.07,0,0,1,4,1.07,6.74,6.74,0,0,1,2.48,2.77,8.25,8.25,0,0,1,.83,3.63,7.88,7.88,0,0,1-1.28,4.38A6.12,6.12,0,0,1,352,34.91l5.72,10.16h-5.58Zm2-4.78a2.26,2.26,0,0,0,1.86-.81,3.25,3.25,0,0,0,0-3.9,2.26,2.26,0,0,0-1.86-.81h-4.34v5.52Z"/><path class="a" d="M366.09,20.44v19.7h7.82v4.93H361.16V20.44Z"/><path class="a" d="M391.66,22.18a11.31,11.31,0,0,1,4.18,4.56,13.51,13.51,0,0,1,0,12,11.27,11.27,0,0,1-4.18,4.57,12.38,12.38,0,0,1-6.7,1.74h-7.34V20.44H385A12.38,12.38,0,0,1,391.66,22.18Zm-9.12,3.18V40.14H385a7.12,7.12,0,0,0,3.91-1,6.69,6.69,0,0,0,2.46-2.74,8.31,8.31,0,0,0,0-7.2,6.72,6.72,0,0,0-2.46-2.73A7,7,0,0,0,385,25.36Z"/><path class="a" d="M281.8,77.05a9.88,9.88,0,0,0,3.26,1.57,12.24,12.24,0,0,0,3.08.43l.69,0a2.94,2.94,0,0,0,1.81-.73,2,2,0,0,0,.74-1.55,2.19,2.19,0,0,0-.65-1.67,5.68,5.68,0,0,0-1.9-1,16.52,16.52,0,0,1-5.36-3,5.8,5.8,0,0,1-1.94-4.55,7.91,7.91,0,0,1,.88-3.72,6.86,6.86,0,0,1,2.46-2.69,7.44,7.44,0,0,1,3.62-1.1l.82,0A16.1,16.1,0,0,1,294.62,60L294,64.79a12,12,0,0,0-5-1,2.41,2.41,0,0,0-2.45,2.51,2,2,0,0,0,.73,1.67,6.48,6.48,0,0,0,2,1,15.28,15.28,0,0,1,5.2,3,5.92,5.92,0,0,1,1.93,4.53,7.46,7.46,0,0,1-1,3.87,6.91,6.91,0,0,1-2.84,2.67,9,9,0,0,1-4.29,1,16.08,16.08,0,0,1-7.1-1.83Z"/><path class="a" d="M305.16,83.81V64.1H299V59.21h17.19V64.1h-6.13V83.81Z"/><path class="a" d="M326.72,58.28h.51L337.6,83.81h-5.54l-1-2.66h-8.17l-1,2.66h-5.58Zm2.51,18.26L327,70.13l-2.3,6.41Z"/><path class="a" d="M343.77,83.81V64.1h-6.14V59.21h17.19V64.1h-6.13V83.81Z"/><path class="a" d="M359.18,83.81V59.18h4.93V83.81Z"/><path class="a" d="M370.32,77.05a9.88,9.88,0,0,0,3.26,1.57,12.24,12.24,0,0,0,3.08.43l.69,0a2.94,2.94,0,0,0,1.81-.73,2,2,0,0,0,.74-1.55,2.19,2.19,0,0,0-.65-1.67,5.68,5.68,0,0,0-1.9-1,16.35,16.35,0,0,1-5.35-3,5.77,5.77,0,0,1-1.95-4.55,7.91,7.91,0,0,1,.88-3.72,6.86,6.86,0,0,1,2.46-2.69A7.44,7.44,0,0,1,377,59l.82,0A16.1,16.1,0,0,1,383.14,60l-.62,4.75a12,12,0,0,0-5-1A2.41,2.41,0,0,0,375,66.27a2.07,2.07,0,0,0,.73,1.67,6.48,6.48,0,0,0,2,1,15.18,15.18,0,0,1,5.2,3,5.92,5.92,0,0,1,1.93,4.53,7.46,7.46,0,0,1-1,3.87,6.85,6.85,0,0,1-2.84,2.67,9,9,0,0,1-4.29,1,16.08,16.08,0,0,1-7.1-1.83Z"/><path class="a" d="M393.68,83.81V64.1h-6.14V59.21h17.19V64.1H398.6V83.81Z"/><path class="a" d="M409.09,83.81V59.18H414V83.81Z"/><path class="a" d="M434.3,64.12a7.91,7.91,0,0,0-2.36-.29,7.19,7.19,0,0,0-4,1.06,7,7,0,0,0-2.49,2.79,8.28,8.28,0,0,0,0,7.31A6.83,6.83,0,0,0,428,77.78a7.19,7.19,0,0,0,4,1.07,10.17,10.17,0,0,0,2.67-.33,10.43,10.43,0,0,0,2.09-.78l.65,5.1a14.54,14.54,0,0,1-2.61.74,14.1,14.1,0,0,1-2.8.29,12.7,12.7,0,0,1-6.82-1.75,11.29,11.29,0,0,1-4.25-4.64,13.75,13.75,0,0,1,0-12.21,11.45,11.45,0,0,1,4.25-4.63,12.61,12.61,0,0,1,6.82-1.77,11.84,11.84,0,0,1,4.86,1l-.58,5.06A12.21,12.21,0,0,0,434.3,64.12Z"/><path class="a" d="M441.87,77.05a9.74,9.74,0,0,0,3.25,1.57,12.24,12.24,0,0,0,3.08.43l.69,0a2.94,2.94,0,0,0,1.81-.73,2,2,0,0,0,.74-1.55,2.19,2.19,0,0,0-.65-1.67,5.68,5.68,0,0,0-1.9-1,16.35,16.35,0,0,1-5.35-3,5.77,5.77,0,0,1-2-4.55,7.91,7.91,0,0,1,.88-3.72,6.86,6.86,0,0,1,2.46-2.69,7.44,7.44,0,0,1,3.62-1.1l.83,0a16.1,16.1,0,0,1,5.3,1.07l-.62,4.75a12,12,0,0,0-5-1,2.41,2.41,0,0,0-2.45,2.51,2.07,2.07,0,0,0,.73,1.67,6.48,6.48,0,0,0,2,1,15.18,15.18,0,0,1,5.2,3,5.92,5.92,0,0,1,1.93,4.53,7.46,7.46,0,0,1-1,3.87,6.85,6.85,0,0,1-2.84,2.67,9,9,0,0,1-4.29,1,15.27,15.27,0,0,1-3.31-.42,15.09,15.09,0,0,1-3.78-1.41Z"/><path class="a" d="M296.36,99.65a11.2,11.2,0,0,1,4.18,4.57,13.43,13.43,0,0,1,0,12,11.24,11.24,0,0,1-4.18,4.56,12.35,12.35,0,0,1-6.7,1.74h-7.34V97.91h7.34A12.35,12.35,0,0,1,296.36,99.65Zm-9.11,3.19v14.78h2.41a7.1,7.1,0,0,0,3.91-1.05,6.75,6.75,0,0,0,2.46-2.74,8.15,8.15,0,0,0,.83-3.62,8,8,0,0,0-.83-3.58,6.69,6.69,0,0,0-2.46-2.74,7.1,7.1,0,0,0-3.91-1Z"/><path class="a" d="M313.26,97h.52l10.37,25.52H318.6l-1-2.65h-8.16l-1,2.65h-5.58Zm2.52,18.25-2.24-6.4-2.31,6.4Z"/><path class="a" d="M330.6,111.45,322,97.91h6l5,8.48,5-8.48h6l-8.62,13.54v11.09H330.6Z"/><path class="b" d="M286.92,146a2.36,2.36,0,0,0,.2-.84,1.6,1.6,0,0,0-.57-1.27,2.15,2.15,0,0,0-1.46-.49,5.64,5.64,0,0,0-2.15.48,6.2,6.2,0,0,0-1.66.91l-.86-3.37a8.73,8.73,0,0,1,2.47-1.19,7.91,7.91,0,0,1,2.72-.4,6.64,6.64,0,0,1,2.9.73,4.64,4.64,0,0,1,1.83,1.73,4.58,4.58,0,0,1,.63,2.38,6.77,6.77,0,0,1-1.45,4L286.07,154h5.19v3.54H279.71l6.53-10.37A5.78,5.78,0,0,0,286.92,146Z"/><path class="b" d="M295.05,155.27a15.11,15.11,0,0,1,0-13,5.4,5.4,0,0,1,9.08,0,15.17,15.17,0,0,1,0,13,5.38,5.38,0,0,1-9.08,0Zm6.55-2.36a14.13,14.13,0,0,0,0-8.28,2.12,2.12,0,0,0-2-1.56,2.07,2.07,0,0,0-2,1.56,14.13,14.13,0,0,0,0,8.28,2.07,2.07,0,0,0,2,1.56A2.12,2.12,0,0,0,301.6,152.91Z"/><path class="b" d="M311.08,154.33a2.12,2.12,0,0,1,0,2.78,1.85,1.85,0,0,1-1.45.59,1.87,1.87,0,0,1-1.46-.59,2,2,0,0,1-.52-1.4,2,2,0,0,1,.52-1.38,2.17,2.17,0,0,1,2.93,0Z"/><path class="b" d="M313.62,140.06H320v17.46h-3.48v-14h-2.86Z"/><path class="b" d="M324.68,155.27a15.11,15.11,0,0,1,0-13,5.39,5.39,0,0,1,9.07,0,15.17,15.17,0,0,1,0,13,5.37,5.37,0,0,1-9.07,0Zm6.54-2.36a13.92,13.92,0,0,0,0-8.28,2.11,2.11,0,0,0-2-1.56,2.08,2.08,0,0,0-2,1.56,14.35,14.35,0,0,0,0,8.28,2.08,2.08,0,0,0,2,1.56A2.11,2.11,0,0,0,331.22,152.91Z"/><path class="b" d="M340.7,154.33a2.1,2.1,0,0,1,0,2.78,1.87,1.87,0,0,1-1.46.59,1.85,1.85,0,0,1-1.45-.59,2,2,0,0,1-.53-1.4,2,2,0,0,1,.53-1.38,2.15,2.15,0,0,1,2.92,0Z"/><path class="b" d="M349.86,146a2.42,2.42,0,0,0,.21-.84,1.6,1.6,0,0,0-.57-1.27,2.17,2.17,0,0,0-1.46-.49,5.6,5.6,0,0,0-2.15.48,6.2,6.2,0,0,0-1.66.91l-.86-3.37a8.6,8.6,0,0,1,2.47-1.19,7.91,7.91,0,0,1,2.72-.4,6.56,6.56,0,0,1,2.89.73,4.67,4.67,0,0,1,1.84,1.73,4.57,4.57,0,0,1,.62,2.38,6.75,6.75,0,0,1-1.44,4L349,154h5.19v3.54H342.66l6.53-10.37A5.27,5.27,0,0,0,349.86,146Z"/><path class="b" d="M358,155.27a15.11,15.11,0,0,1,0-13,5.4,5.4,0,0,1,9.08,0,15.27,15.27,0,0,1,0,13,5.38,5.38,0,0,1-9.08,0Zm6.54-2.36a13.92,13.92,0,0,0,0-8.28,2.06,2.06,0,0,0-4,0,14.35,14.35,0,0,0,0,8.28,2.06,2.06,0,0,0,4,0Z"/><path class="b" d="M377.22,146a2.36,2.36,0,0,0,.2-.84,1.6,1.6,0,0,0-.57-1.27,2.15,2.15,0,0,0-1.46-.49,5.64,5.64,0,0,0-2.15.48,6.2,6.2,0,0,0-1.66.91l-.86-3.37a8.73,8.73,0,0,1,2.47-1.19,7.91,7.91,0,0,1,2.72-.4,6.64,6.64,0,0,1,2.9.73,4.64,4.64,0,0,1,1.83,1.73,4.58,4.58,0,0,1,.63,2.38,6.77,6.77,0,0,1-1.45,4L376.37,154h5.19v3.54H370l6.53-10.37A5.78,5.78,0,0,0,377.22,146Z"/><path class="b" d="M385.35,155.27a15.11,15.11,0,0,1,0-13,5.4,5.4,0,0,1,9.08,0,15.17,15.17,0,0,1,0,13,5.38,5.38,0,0,1-9.08,0Zm6.55-2.36a14.13,14.13,0,0,0,0-8.28,2.12,2.12,0,0,0-2-1.56,2.07,2.07,0,0,0-2,1.56,14.13,14.13,0,0,0,0,8.28,2.07,2.07,0,0,0,2,1.56A2.12,2.12,0,0,0,391.9,152.91Z"/><path class="a" d="M290,179.31a4.93,4.93,0,0,0-1.5-.19,4.49,4.49,0,0,0-2.5.68,4.31,4.31,0,0,0-1.58,1.76,5.16,5.16,0,0,0-.54,2.31,5.09,5.09,0,0,0,.54,2.31A4.28,4.28,0,0,0,286,188a4.49,4.49,0,0,0,2.5.67,6.56,6.56,0,0,0,3-.69l.41,3.22a9.28,9.28,0,0,1-1.65.47,9.54,9.54,0,0,1-1.77.19,7.93,7.93,0,0,1-4.31-1.12,7.09,7.09,0,0,1-2.69-2.93,8.64,8.64,0,0,1,0-7.72,7.15,7.15,0,0,1,2.69-2.93,7.93,7.93,0,0,1,4.31-1.13,7.63,7.63,0,0,1,3.08.61l-.38,3.21A7.05,7.05,0,0,0,290,179.31Z"/><path class="a" d="M297.75,190.85a7.31,7.31,0,0,1-2.73-3,8.81,8.81,0,0,1,0-7.84,7.31,7.31,0,0,1,2.73-3,9.11,9.11,0,0,1,8.79,0,7.31,7.31,0,0,1,2.73,3,8.81,8.81,0,0,1,0,7.84,7.31,7.31,0,0,1-2.73,3,9.11,9.11,0,0,1-8.79,0Zm6.95-2.78a4.38,4.38,0,0,0,1.6-1.79,5.35,5.35,0,0,0,.53-2.34,5.5,5.5,0,0,0-.53-2.36,4.29,4.29,0,0,0-1.6-1.78,4.71,4.71,0,0,0-2.55-.68,4.61,4.61,0,0,0-2.54.68,4.23,4.23,0,0,0-1.59,1.77,5.35,5.35,0,0,0-.54,2.37,5.22,5.22,0,0,0,.54,2.34,4.28,4.28,0,0,0,1.59,1.79,4.53,4.53,0,0,0,2.54.69A4.63,4.63,0,0,0,304.7,188.07Z"/><path class="a" d="M316.8,191.76h-3.12V175.85h.83l7.87,9.16V176.2h3.13v15.89h-.82l-7.89-8.81Z"/><path class="a" d="M332.84,191.76h-3.11V175.85h.83l7.86,9.16V176.2h3.14v15.89h-.83l-7.89-8.81Z"/><path class="a" d="M345.77,191.76V176.18h7.81v3.12h-4.69v3.11H353v3.12h-4.1v3.12h4.95v3.11Z"/><path class="a" d="M365.9,179.31a4.91,4.91,0,0,0-1.49-.19,4.55,4.55,0,0,0-2.51.68,4.46,4.46,0,0,0-1.58,1.76,5.28,5.28,0,0,0-.53,2.31,5.22,5.22,0,0,0,.53,2.31A4.42,4.42,0,0,0,361.9,188a4.55,4.55,0,0,0,2.51.67,6.47,6.47,0,0,0,1.69-.2,6.91,6.91,0,0,0,1.32-.49l.41,3.22a9.16,9.16,0,0,1-1.66.47,9.35,9.35,0,0,1-1.76.19,8,8,0,0,1-4.32-1.12,7.15,7.15,0,0,1-2.69-2.93,8.73,8.73,0,0,1,0-7.72,7.22,7.22,0,0,1,2.69-2.93,8,8,0,0,1,4.32-1.13,7.58,7.58,0,0,1,3.07.61l-.37,3.21A6.82,6.82,0,0,0,365.9,179.31Z"/><path class="a" d="M373.74,191.76V179.3h-3.88v-3.1h10.88v3.1h-3.88v12.46Z"/><path class="a" d="M383.53,191.76V176.18h3.12v15.58Z"/><path class="a" d="M394,191.76h-3.12V175.85h.83l7.87,9.16V176.2h3.14v15.89h-.83L394,183.28Z"/><path class="a" d="M414,191.85a7.92,7.92,0,0,1-4.28-1.12,7.3,7.3,0,0,1-2.71-2.92,8.37,8.37,0,0,1-.92-3.85,8.22,8.22,0,0,1,.9-3.78,7.32,7.32,0,0,1,2.68-2.91,8.44,8.44,0,0,1,4.33-1.22,8.11,8.11,0,0,1,2,.14c.55.12,1.1.27,1.63.43l-.37,3.16a7.47,7.47,0,0,0-3-.57,5,5,0,0,0-2.67.68,4.32,4.32,0,0,0-1.66,1.76,5.25,5.25,0,0,0,0,4.64,4.35,4.35,0,0,0,1.58,1.77,4.49,4.49,0,0,0,2.48.67,7.41,7.41,0,0,0,.88-.08V184h3.16v6.84A8.06,8.06,0,0,1,414,191.85Z"/><path class="a" d="M283.88,219.32V206.85H280v-3.09h10.88v3.09H287v12.47Z"/><path class="a" d="M301.45,219.32v-6.23h-4.67v6.23h-3.11V203.74h3.11V210h4.67v-6.23h3.11v15.58Z"/><path class="a" d="M308.79,219.32V203.74h7.8v3.11H311.9V210H316v3.12h-4.1v3.11h5v3.12Z"/><path class="a" d="M325.35,203.74h3.51l3.14,7.95,3.05-7.8h.15l3.05,7.8,3.14-7.95h3.51l-6.36,15.84H338l-2.85-6.91-2.84,7h-.54Z"/><path class="a" d="M349.7,218.41a7.26,7.26,0,0,1-2.74-3,8.9,8.9,0,0,1,0-7.84,7.26,7.26,0,0,1,2.74-3,9.09,9.09,0,0,1,8.78,0,7.33,7.33,0,0,1,2.74,3,8.9,8.9,0,0,1,0,7.84,7.33,7.33,0,0,1-2.74,3,9.09,9.09,0,0,1-8.78,0Zm6.94-2.78a4.44,4.44,0,0,0,1.6-1.79,5.21,5.21,0,0,0,.53-2.34,5.33,5.33,0,0,0-.53-2.36,4.29,4.29,0,0,0-1.6-1.78,4.67,4.67,0,0,0-2.55-.68,4.61,4.61,0,0,0-2.54.68,4.23,4.23,0,0,0-1.59,1.77,5.32,5.32,0,0,0-.54,2.37,5.22,5.22,0,0,0,.54,2.34,4.34,4.34,0,0,0,1.59,1.79,4.61,4.61,0,0,0,2.54.68A4.67,4.67,0,0,0,356.64,215.63Z"/><path class="a" d="M370.24,213.37h-1.5v5.95h-3.12V203.74h6.15a4.55,4.55,0,0,1,2.51.67,4.36,4.36,0,0,1,1.57,1.76,5.31,5.31,0,0,1,.52,2.3,5,5,0,0,1-.81,2.77,3.87,3.87,0,0,1-2.26,1.65l3.61,6.43h-3.53Zm1.25-3a1.42,1.42,0,0,0,1.17-.51,2,2,0,0,0,0-2.46,1.43,1.43,0,0,0-1.17-.52h-2.75v3.49Z"/><path class="a" d="M383,203.74V216.2h5v3.12h-8.06V203.74Z"/><path class="a" d="M399.74,204.84a7.15,7.15,0,0,1,2.65,2.89,8.56,8.56,0,0,1,0,7.6,7.15,7.15,0,0,1-2.65,2.89,7.85,7.85,0,0,1-4.24,1.1h-4.64V203.74h4.64A7.85,7.85,0,0,1,399.74,204.84Zm-5.76,2v9.35h1.52a4.52,4.52,0,0,0,2.48-.66,4.16,4.16,0,0,0,1.55-1.73,5.13,5.13,0,0,0,.53-2.29,5.08,5.08,0,0,0-.53-2.27,4.16,4.16,0,0,0-1.55-1.73,4.53,4.53,0,0,0-2.48-.67Z"/><path class="a" d="M279.7,231.3h3.5l3.14,7.95,3.05-7.8h.16l3.05,7.8,3.14-7.95h3.5l-6.36,15.84h-.57l-2.85-6.91-2.83,7h-.55Z"/><path class="a" d="M301.57,246.88V231.3h3.11v15.58Z"/><path class="a" d="M311,246.88V234.41h-3.88v-3.09H318v3.09h-3.88v12.47Z"/><path class="a" d="M328.35,246.88v-6.23h-4.66v6.23h-3.12V231.3h3.12v6.23h4.66V231.3h3.12v15.58Z"/><path class="a" d="M350.57,232.4a7.08,7.08,0,0,1,2.65,2.89,8.56,8.56,0,0,1,0,7.6,7.15,7.15,0,0,1-2.65,2.89,7.85,7.85,0,0,1-4.24,1.1h-4.64V231.3h4.64A7.76,7.76,0,0,1,350.57,232.4Zm-5.76,2v9.35h1.52a4.52,4.52,0,0,0,2.48-.66,4.16,4.16,0,0,0,1.55-1.73,5.17,5.17,0,0,0,.53-2.29,5.08,5.08,0,0,0-.53-2.27,4.16,4.16,0,0,0-1.55-1.73,4.53,4.53,0,0,0-2.48-.67Z"/><path class="a" d="M361.64,230.73H362l6.56,16.15H365l-.63-1.68h-5.17l-.61,1.68h-3.53Zm1.59,11.55-1.42-4.05-1.46,4.05Z"/><path class="a" d="M372.31,246.88V234.41h-3.88v-3.09h10.88v3.09h-3.88v12.47Z"/><path class="a" d="M385.83,230.73h.33l6.56,16.15h-3.51l-.63-1.68h-5.17l-.61,1.68h-3.53Zm1.59,11.55L386,238.23l-1.46,4.05Z"/><path class="a" d="M279.7,258.86h3.5l3.14,7.95,3.05-7.8h.16l3.05,7.8,3.14-7.95h3.5l-6.36,15.84h-.57l-2.85-6.91-2.83,7h-.55Z"/><path class="a" d="M301.57,274.44V258.86h7.8V262h-4.68v3.12h4.09v3.12h-4.09v3.11h4.94v3.12Z"/><path class="a" d="M328,262a5.23,5.23,0,0,0-1.49-.18,4.55,4.55,0,0,0-2.51.67,4.42,4.42,0,0,0-1.58,1.77,5.3,5.3,0,0,0,0,4.62,4.39,4.39,0,0,0,1.58,1.76,4.47,4.47,0,0,0,2.51.68,6.47,6.47,0,0,0,1.69-.21,6.29,6.29,0,0,0,1.32-.49l.41,3.23a10.2,10.2,0,0,1-1.65.47,9.49,9.49,0,0,1-1.77.18,8,8,0,0,1-4.32-1.11,7.22,7.22,0,0,1-2.69-2.93,8.75,8.75,0,0,1,0-7.73,7.34,7.34,0,0,1,2.69-2.93,8,8,0,0,1,4.32-1.12,7.41,7.41,0,0,1,3.07.61l-.37,3.2A8.77,8.77,0,0,0,328,262Z"/><path class="a" d="M338.34,258.29h.32l6.56,16.15h-3.51l-.63-1.68h-5.16l-.61,1.68h-3.53Zm1.59,11.55-1.42-4-1.46,4Z"/><path class="a" d="M350.79,274.44h-3.12V258.53h.83l7.87,9.15v-8.8h3.14v15.89h-.83L350.79,266Z"/><path class="a" d="M372.3,274.44V262h-3.88v-3.09H379.3V262h-3.88v12.47Z"/><path class="a" d="M386.47,268.49H385v5.95h-3.11V258.86H388a4.52,4.52,0,0,1,2.51.67,4.29,4.29,0,0,1,1.57,1.76,5.13,5.13,0,0,1,.52,2.29,5,5,0,0,1-.8,2.77,3.91,3.91,0,0,1-2.27,1.66l3.62,6.43h-3.53Zm1.24-3a1.44,1.44,0,0,0,1.18-.51,1.92,1.92,0,0,0,.41-1.23,2,2,0,0,0-.41-1.24,1.44,1.44,0,0,0-1.18-.51H385v3.49Z"/><path class="a" d="M406,272a5.09,5.09,0,0,1-2.09,1.9,6.12,6.12,0,0,1-2.74.63,6.24,6.24,0,0,1-2.76-.63,5.09,5.09,0,0,1-2.09-1.9,5.56,5.56,0,0,1-.8-3V258.86h3.12V269a2.25,2.25,0,0,0,.75,1.8,2.78,2.78,0,0,0,3.55,0,2.22,2.22,0,0,0,.76-1.8V258.86h3.09V269A5.56,5.56,0,0,1,406,272Z"/><path class="a" d="M410.33,270.17a6.19,6.19,0,0,0,2.06,1,8,8,0,0,0,1.95.27l.44,0a1.82,1.82,0,0,0,1.14-.46,1.23,1.23,0,0,0,.47-1,1.4,1.4,0,0,0-.41-1.06,3.71,3.71,0,0,0-1.2-.66,10.54,10.54,0,0,1-3.39-1.87,3.67,3.67,0,0,1-1.23-2.88,5.06,5.06,0,0,1,.55-2.36,4.56,4.56,0,0,1,1.56-1.7,4.63,4.63,0,0,1,2.29-.69l.52,0a10.32,10.32,0,0,1,3.36.67l-.39,3a7.68,7.68,0,0,0-3.18-.66,1.64,1.64,0,0,0-1.15.49,1.59,1.59,0,0,0-.4,1.11,1.27,1.27,0,0,0,.46,1,3.91,3.91,0,0,0,1.28.67,9.64,9.64,0,0,1,3.29,1.9,3.76,3.76,0,0,1,1.22,2.87,4.75,4.75,0,0,1-.63,2.45,4.39,4.39,0,0,1-1.8,1.69,5.7,5.7,0,0,1-2.71.61,10,10,0,0,1-2.09-.26,9.64,9.64,0,0,1-2.4-.89Z"/><path class="a" d="M424.9,274.44V262H421v-3.09H431.9V262H428v12.47Z"/></svg>