<?xml version="1.0" encoding="utf-8"?>
<!-- Generator: Adobe Illustrator 15.0.0, SVG Export Plug-In . SVG Version: 6.00 Build 0)  -->
<!DOCTYPE svg PUBLIC "-//W3C//DTD SVG 1.1//EN" "http://www.w3.org/Graphics/SVG/1.1/DTD/svg11.dtd">
<svg version="1.1" id="Ebene_1" xmlns="http://www.w3.org/2000/svg" xmlns:xlink="http://www.w3.org/1999/xlink" x="0px" y="0px"
	 preserveAspectRatio="xMinYMin meet" viewBox="71 117 859 359.275" enable-background="new 0 0 991 595.275" xml:space="preserve">
<path fill="#003299" d="M755.257,192.901H430.219c-31.798-42.59-82.596-70.167-139.833-70.167s-108.033,27.577-139.83,70.167h-73.35
	V412.72h82.617c31.949,36.06,78.598,58.798,130.563,58.798s98.616-22.738,130.566-58.798h334.305H921.89V192.901H755.257z"/>
<g>
	<path fill="#FFF315" d="M374.765,230.019c-17.916-21.943-47.541-37.3-84.107-37.3c-45.72,0-82.295,29.989-93.629,69.489h162.747
		l-10.972,23.036H191.91c-0.371,4.756-0.734,8.411-0.734,12.068c0,3.66,0.363,6.947,0.734,10.975h146.285l-10.971,23.044H197.028
		c13.168,43.14,49.738,70.21,97.28,70.21c32.915,0,62.169-14.261,80.456-36.2v31.086c-18.287,14.622-49.367,28.149-82.281,28.149
		c-58.519,0-107.89-35.47-121.421-93.245h-41.327l10.972-23.044h25.966c-0.368-4.76-0.368-8.045-0.368-11.344
		c0-3.651,0-6.943,0.368-11.699h-36.938l10.972-23.036h30.355c13.531-57.792,62.902-92.537,123.246-92.537
		c34.74,0,71.315,14.636,91.065,38.046L374.765,230.019z"/>
</g>
<g>
	<path fill="#FFFFFF" d="M488.534,258.007c0,10.842-2.169,19.035-6.506,24.58c-4.338,5.545-10.636,8.317-18.893,8.317
		c-8.294,0-14.644-2.765-19.05-8.294c-4.407-5.529-6.61-13.73-6.61-24.603c0-10.78,2.187-18.949,6.559-24.51
		c4.372-5.56,10.722-8.34,19.049-8.34c8.224,0,14.521,2.765,18.894,8.294C486.349,238.98,488.534,247.166,488.534,258.007z
		 M476.199,258.031c0-7.535-0.98-13.464-2.94-17.79c-1.961-4.326-5.387-6.488-10.279-6.488s-8.311,2.171-10.254,6.512
		s-2.914,10.263-2.914,17.766c0,7.38,0.954,13.271,2.862,17.674s5.396,6.604,10.462,6.604c4.753,0,8.119-2.132,10.097-6.395
		S476.199,265.689,476.199,258.031z"/>
	<path fill="#FFFFFF" d="M499.256,226.319h11.502v39.355c0,4.399,0.261,7.644,0.781,9.734c0.521,2.091,1.708,3.749,3.565,4.972
		c1.855,1.224,4.362,1.835,7.521,1.835c2.983,0,5.309-0.503,6.975-1.51c1.665-1.006,2.845-2.432,3.539-4.275
		c0.693-1.843,1.041-5.49,1.041-10.942v-39.169h10.565v38.658c0,6.196-0.494,10.966-1.483,14.311
		c-0.989,3.346-3.279,6.118-6.87,8.317c-3.592,2.199-8.406,3.299-14.443,3.299c-4.685,0-8.753-0.69-12.205-2.068
		c-3.453-1.378-6.063-3.608-7.833-6.691c-1.77-3.082-2.654-8.572-2.654-16.472V226.319z"/>
	<path fill="#FFFFFF" d="M557.861,226.319h21.392c7.736,0,13.445,1.564,17.123,4.693c3.678,3.129,5.518,7.62,5.518,13.475
		c0,7.806-3.627,13.335-10.878,16.588l13.479,28.668h-12.757l-11.043-26.485h-11.071v26.485h-11.763V226.319z M569.624,234.45
		v20.677h9.004c4.024,0,6.982-0.991,8.874-2.974c1.891-1.982,2.837-4.569,2.837-7.759c0-6.629-3.87-9.944-11.606-9.944H569.624z"/>
	<path fill="#FFFFFF" d="M482.133,329.491l-10.045,3.112c-1.181-3.361-2.732-5.843-4.658-7.445
		c-1.926-1.604-4.555-2.404-7.886-2.404c-3.089,0-5.474,0.815-7.156,2.446c-1.684,1.631-2.524,3.503-2.524,5.615
		c0,2.331,0.945,4.188,2.837,5.569c1.891,1.383,5.664,3.034,11.32,4.954c4.822,1.643,8.535,3.206,11.138,4.693
		c2.603,1.486,4.71,3.478,6.324,5.971c1.613,2.494,2.42,5.383,2.42,8.666c0,5.328-2.108,9.866-6.324,13.613
		c-4.216,3.749-10.123,5.622-17.722,5.622c-13.116,0-21.235-5.916-24.358-17.749l10.514-2.648
		c1.839,7.806,6.627,11.709,14.365,11.709c3.781,0,6.653-0.875,8.613-2.625s2.941-3.91,2.941-6.482c0-1.889-0.677-3.639-2.03-5.25
		c-1.354-1.61-4.719-3.329-10.097-5.157c-5.691-1.921-9.794-3.547-12.31-4.879c-2.517-1.332-4.658-3.299-6.428-5.901
		c-1.77-2.602-2.654-5.56-2.654-8.875c0-5.048,1.969-9.292,5.907-12.73c3.938-3.438,9.168-5.158,15.692-5.158
		C471.567,314.157,478.939,319.269,482.133,329.491z"/>
	<path fill="#FFFFFF" d="M487.181,315.319h43.407v8.921h-15.874v54.503h-11.763V324.24h-15.771V315.319z"/>
	<path fill="#FFFFFF" d="M546.578,315.319h13.184l19.074,63.424h-11.908l-4.457-15.891H541.64l-4.415,15.891h-11.216
		L546.578,315.319z M560.152,354.582l-8.146-29.041l-8.069,29.041H560.152z"/>
	<path fill="#FFFFFF" d="M574.62,315.319h43.407v8.921h-15.874v54.503h-11.763V324.24H574.62V315.319z"/>
	<path fill="#FFFFFF" d="M623.129,315.319h11.763v63.424h-11.763V315.319z"/>
	<path fill="#FFFFFF" d="M690.843,329.491l-10.045,3.112c-1.181-3.361-2.733-5.843-4.658-7.445
		c-1.926-1.604-4.555-2.404-7.886-2.404c-3.089,0-5.474,0.815-7.156,2.446c-1.684,1.631-2.524,3.503-2.524,5.615
		c0,2.331,0.945,4.188,2.837,5.569c1.891,1.383,5.664,3.034,11.32,4.954c4.822,1.643,8.535,3.206,11.138,4.693
		c2.603,1.486,4.71,3.478,6.324,5.971c1.613,2.494,2.42,5.383,2.42,8.666c0,5.328-2.108,9.866-6.324,13.613
		c-4.216,3.749-10.123,5.622-17.722,5.622c-13.116,0-21.235-5.916-24.358-17.749l10.514-2.648
		c1.839,7.806,6.627,11.709,14.365,11.709c3.781,0,6.653-0.875,8.613-2.625s2.941-3.91,2.941-6.482c0-1.889-0.677-3.639-2.03-5.25
		c-1.354-1.61-4.719-3.329-10.097-5.157c-5.691-1.921-9.794-3.547-12.31-4.879c-2.517-1.332-4.658-3.299-6.428-5.901
		c-1.77-2.602-2.654-5.56-2.654-8.875c0-5.048,1.969-9.292,5.907-12.73c3.938-3.438,9.168-5.158,15.692-5.158
		C680.277,314.157,687.649,319.269,690.843,329.491z"/>
	<path fill="#FFFFFF" d="M695.891,315.319h43.407v8.921h-15.874v54.503h-11.763V324.24h-15.771V315.319z"/>
	<path fill="#FFFFFF" d="M744.399,315.319h11.763v63.424h-11.763V315.319z"/>
	<path fill="#FFFFFF" d="M805.503,357.416l10.826,1.348c-2.219,14.095-9.966,21.141-23.241,21.141
		c-8.631,0-15.061-2.957-19.289-8.874c-4.229-5.916-6.343-13.831-6.343-23.743c0-10.688,2.236-18.88,6.707-24.58
		c4.472-5.699,10.918-8.55,19.342-8.55c13.032,0,20.675,7.218,22.928,21.652l-10.93,1.44c-1.178-9.602-5.16-14.403-11.946-14.403
		c-9.072,0-13.608,8.348-13.608,25.044c0,15.551,4.536,23.325,13.608,23.325c3.635,0,6.345-1.185,8.128-3.555
		C803.469,365.292,804.741,361.877,805.503,357.416z"/>
	<path fill="#FFFFFF" d="M868.376,329.491l-10.045,3.112c-1.181-3.361-2.733-5.843-4.658-7.445
		c-1.926-1.604-4.555-2.404-7.886-2.404c-3.089,0-5.474,0.815-7.156,2.446c-1.684,1.631-2.524,3.503-2.524,5.615
		c0,2.331,0.945,4.188,2.837,5.569c1.891,1.383,5.664,3.034,11.32,4.954c4.822,1.643,8.535,3.206,11.138,4.693
		c2.603,1.486,4.71,3.478,6.324,5.971c1.613,2.494,2.42,5.383,2.42,8.666c0,5.328-2.108,9.866-6.324,13.613
		c-4.216,3.749-10.123,5.622-17.722,5.622c-13.116,0-21.235-5.916-24.358-17.749l10.514-2.648
		c1.839,7.806,6.627,11.709,14.365,11.709c3.781,0,6.653-0.875,8.613-2.625s2.941-3.91,2.941-6.482c0-1.889-0.677-3.639-2.03-5.25
		c-1.354-1.61-4.719-3.329-10.097-5.157c-5.691-1.921-9.794-3.547-12.31-4.879c-2.517-1.332-4.658-3.299-6.428-5.901
		c-1.77-2.602-2.654-5.56-2.654-8.875c0-5.048,1.969-9.292,5.907-12.73c3.938-3.438,9.168-5.158,15.692-5.158
		C857.811,314.157,865.183,319.269,868.376,329.491z"/>
</g>
</svg>
