<svg xmlns="http://www.w3.org/2000/svg" viewBox="0 0 1474 1474" height="1474" width="1474" version="1"><path d="M427 1040.333h-73.667c-3.666 0-6.666 3-6.666 6.667v73.667c0 3.666 3 6.666 6.666 6.666H427c3.667 0 6.667-3 6.667-6.666V1047c0-3.667-3-6.667-6.667-6.667zM1294 1040.333h-73.667c-3.666 0-6.666 3-6.666 6.667v73.667c0 3.666 3 6.666 6.666 6.666H1294c3.667 0 6.667-3 6.667-6.666V1047c0-3.667-3-6.667-6.667-6.667zM1294 1214h-73.667c-3.666 0-6.666 3-6.666 6.333v74c0 3.334 3 6.334 6.666 6.334H1294c3.667 0 6.667-3 6.667-6.334v-74c0-3.333-3-6.333-6.667-6.333zM253.667 1040.333H180c-3.667 0-6.667 3-6.667 6.667v73.667c0 3.666 3 6.666 6.667 6.666h73.667c3.666 0 6.666-3 6.666-6.666V1047c0-3.667-3-6.667-6.666-6.667zM721.667 303.667h19.666c3.667 0 6.334-3 6.334-6.667V180c0-3.667 3-6.667 6.666-6.667h171.334c3.666 0 6.666-3 6.666-6.333V6.333c0-3.333-3-6.333-6.666-6.333h-205c-3 0-5.334 3-5.334 6.333V297c0 3.667 3 6.667 6.334 6.667zM253.667 1214H180c-3.667 0-6.667 3-6.667 6.333v74c0 3.334 3 6.334 6.667 6.334h73.667c3.666 0 6.666-3 6.666-6.334v-74c0-3.333-3-6.333-6.666-6.333zM427 1214h-73.667c-3.666 0-6.666 3-6.666 6.333v74c0 3.334 3 6.334 6.666 6.334H427c3.667 0 6.667-3 6.667-6.334v-74c0-3.333-3-6.333-6.667-6.333zM1120.667 1040.333H1047c-3.667 0-6.667 3-6.667 6.667v73.667c0 3.666 3 6.666 6.667 6.666h73.667c3.666 0 6.666-3 6.666-6.666V1047c-.333-3.667-3-6.667-6.666-6.667zM774 1040.333h-73.667c-3.666 0-6.666 3-6.666 6.667v247c0 3.667 3 6.667 6.666 6.667H774c3.667 0 6.333-3 6.333-6.667v-247c0-3.667-3-6.667-6.333-6.667zM600.333 1040.333h-73.666c-3.667 0-6.334 3-6.334 6.667v247c0 3.667 2.667 6.667 6.334 6.667h73.666c3.667 0 6.667-3 6.667-6.667v-247c0-3.667-3-6.667-6.667-6.667z" fill="#003299"/><path d="M1469.667 867h-338c-2.667 0-4.667-2-4.667-4.333v-338c0-2.334-2-4.334-4.333-4.334h-78c-2.334 0-4.334-2-4.334-4.666V351c0-2.333-2-4.333-4.333-4.333H437.667c-2.334 0-4.334 2-4.334 4.333v164.667c0 2.666-2 4.666-4.333 4.666h-78c-2.667 0-4.667 2-4.667 4.334v338c0 2.333-2 4.333-4.333 4.333H4.333C2 867 0 869 0 871.667v598C0 1472 2 1474 4.333 1474h1465.334c2.333 0 4.333-2 4.333-4.333V871.333c0-2.333-2-4.333-4.333-4.333zM1387 1382.333c0 2.667-2 4.667-4.667 4.667h-1291C89 1387 87 1385 87 1382.333V958.667c0-2.334 2-4.334 4.333-4.334H429.667c2.333 0 4.333-2 4.333-4.666v-78.334-8.666-251c0-2.334 2-4.334 4.333-4.334h78c2.334 0 4.334-2 4.334-4.333v-78.667-8.666-77.334c0-2.666 2-4.666 4.333-4.666h424c2.333 0 4.333 2 4.333 4.666V603c0 2.333 2 4.333 4.334 4.333h78c2.666 0 4.666 2 4.666 4.334V950c0 2.333 2 4.333 4.334 4.333h338c2.333 0 4.333 2 4.333 4.334v423.666z" fill="#003299"/><path d="M1120.667 1214H1047c-3.667 0-6.667 3-6.667 6.333v74c0 3.334 3 6.334 6.667 6.334h73.667c3.666 0 6.666-3 6.666-6.334v-74c-.333-3.333-3-6.333-6.666-6.333zM600.333 693.667h-73.666c-3.667 0-6.334 3-6.334 6.666v247c0 3.667 2.667 6.334 6.334 6.334h73.666c3.667 0 6.667-2.667 6.667-6.334v-247c0-3.666-3-6.666-6.667-6.666zM774 693.667h-73.667c-3.666 0-6.666 3-6.666 6.666v247c0 3.667 3 6.334 6.666 6.334H774c3.667 0 6.333-2.667 6.333-6.334v-247c0-3.666-3-6.666-6.333-6.666zM947.333 693.667h-73.666c-3.667 0-6.667 3-6.667 6.666v247c0 3.667 3 6.334 6.667 6.334h73.666c3.667 0 6.334-2.667 6.334-6.334v-247c0-3.666-2.667-6.666-6.334-6.666zM947.333 1040.333h-73.666c-3.667 0-6.667 3-6.667 6.667v247c0 3.667 3 6.667 6.667 6.667h73.666c3.667 0 6.334-3 6.334-6.667v-247c0-3.667-2.667-6.667-6.334-6.667z" fill="#003299"/></svg>
