<svg xmlns="http://www.w3.org/2000/svg" viewBox="0 0 1301.376 1475.333" height="1475.333" width="1301.376" version="1"><path d="M509.376 299.667v-78.334c0-2.333 2-4.333 4.333-4.333h145.333c2.334 0 3.334-2 2.334-4l-115-209.333c-1.334-2-.334-3.667 2.333-3.667h358c2.333 0 4.333 2 4.333 4.333V83c0 2.333-2 4.333-4.333 4.333H696.042c-2.666 0-3.333 1.667-2.333 3.667l115 209.333c1.333 2.334 0 4-2.333 4H513.709c-2.333-.333-4.333-2-4.333-4.666zM380.042 1363l58.667-284c.667-2.667 2.667-5.333 4.667-6.667l51.333-29c2-1.333 2.667-4 1.667-6l-39-68.333c-1.334-2-4-2.667-6-1.333l-85.334 48.666c-2.333 1.334-4.333 4.334-4.666 6.667l-52.667 252.667c-.667 2.333-3 4.333-5.333 4.333H31.042c-2.333 0-4 2-3.666 4.333l9.666 78c.334 2.334 2.667 4.334 5 4.334l333 .333c2.334 0 4.667-1.667 5-4zm-96.666-114.333l30.666-165c.667-2.334-1-4.334-3.333-4.334h-307c-2.333 0-4 2-3.667 4.334l20.667 165c.333 2.333 2.667 4.333 5 4.333h252.333c2.334 0 4.667-2 5.334-4.333zM278.709 1410c-18 0-32.333 14.667-32.333 32.667S260.709 1475 278.709 1475s32.667-14.333 32.667-32.333S296.709 1410 278.709 1410zm-141 0c-18 0-32.333 14.667-32.333 32.667S119.709 1475 137.709 1475s32.667-14.333 32.667-32.333S155.709 1410 137.709 1410zm899.333-119c0 2.333 1.334 8.667 3 9.333 2 .667 5.334 1.334 7.667 1.334h65c2.667 0 8.667-1.334 9.333-3 1-1.667 1.667-5.334 1.667-7.667v-65c0-2.333-1.667-8.667-3.333-9.333-1.667-1-5-1.667-7.667-1.667h-65c-2.333 0-8.333 1.667-9.333 3.333-.667 1.667-1.333 5.334-1.333 7.667v65zm11-162.667h65c2.334 0 8.334-1.333 9.334-3.333.667-1.667 1.333-5 1.333-7.333v-65.334c0-2.333-1.333-8.333-3-9.333-2-.667-5.333-1.333-7.667-1.333h-65c-2.666 0-8.666 1.333-9.333 3.333-1 1.667-1.667 5-1.667 7.333v65.334c0 2.333 1.667 8.333 3.334 9.333 1.667.667 5 1.333 7.667 1.333zm-195.333 0h65c2.333 0 8.333-1.333 9.333-3.333.667-1.667 1.334-5 1.334-7.333v-65.334c0-2.333-1.334-8.333-3-9.333-2-.667-5.334-1.333-7.667-1.333h-65c-2.667 0-8.667 1.333-9.333 3.333-1 1.667-1.667 5-1.667 7.333v65.334c0 2.333 1.667 8.333 3.333 9.333 1.667.667 5 1.333 7.667 1.333zm-11 162.667c0 2.333 1.667 8.667 3.333 9.333 1.667.667 5 1.334 7.667 1.334h65c2.333 0 8.333-1.334 9.333-3 .667-1.667 1.334-5.334 1.334-7.667v-65c0-2.333-1.334-8.667-3-9.333-2-1-5.334-1.667-7.667-1.667h-65c-2.667 0-8.667 1.667-9.333 3.333-1 1.667-1.667 5.334-1.667 7.667zm455.667-391.667l-638-136.666c2.666 31.666 4.666 61.666 7 90.666l547.667 117.334V1388H708.376c6.333 83.333 6.333 84.333 6.333 85.667v1.666h509l73.333-.333c2.334 0 4.334-2 4.334-4.333v-566c0-2.334-2-5-4-5.334zm-682.334-137l-32.666-410.666c0-2.667-2.334-4.667-4.667-4.667l-228.667-1.333c-2.333 0-4.666 2-4.666 4.333l-61.667 655 92-46.667 49.333-524.666 77.334.333 27 335c.333 3 .333 6 1 8.667 13.666 176.666 36.333 464.666 47.666 610.666H375.376v87H667.709c3.333 0 2.333-.333 3.333-2 0-2.333-55.666-709.666-55.666-709.666 0-.667 0-1-.334-1.334z" fill="#003299"/></svg>
