<svg xmlns="http://www.w3.org/2000/svg" viewBox="0 0 1470.239 1474" height="1474" width="1470.239" version="1"><path d="M734.98 97.667L1117.313 300c2.333 1 2 2-.333 2h-764c-2.333 0-2.667-1-.667-2L734.98 97.667m4-96.667c-2.333-1.333-5.667-1.333-7.667 0l-730 386.333c-2 1-1.666 2 .667 2h1466.333c2.333 0 2.667-1 .333-2zM346.313 520v732.333c0 2.334-2 4.334-4.333 4.334h-77c-2.333 0-4.333-2-4.333-4.334v-728c0-2.333 2-4.333 4.333-4.333h81.333m87.334-82.667c0-2.333-2-4.333-4.334-4.333H177.647c-2.334 0-4.334 2-4.334 4.333v902.334c0 2.333 2 4.333 4.334 4.333h251.666c2.334 0 4.334-2 4.334-4.333zM777.98 520v732.333c0 2.334-2 4.334-4.333 4.334h-77.334c-2.333 0-4.333-2-4.333-4.334v-728c0-2.333 2-4.333 4.333-4.333h81.667m87-83c0-2.333-2-4.333-4.333-4.333H609.313c-2.333 0-4.333 2-4.333 4.333v902.333c0 2.334 2 4.334 4.333 4.334H860.98c2.333 0 4.333-2 4.333-4.334V437zm346.666 83v732.333c0 2.334-2 4.334-4.333 4.334h-77c-2.333 0-4.333-2-4.333-4.334v-728c0-2.333 2-4.333 4.333-4.333h81.333m87.334-83c0-2.333-2-4.333-4.334-4.333H1042.98c-2.334 0-4.334 2-4.334 4.333v902.333c0 2.334 2 4.334 4.334 4.334h251.666c2.334 0 4.334-2 4.334-4.334zm86.666 954c0-2.333-2-4.333-4.333-4.333H88.647c-2.334 0-4.334 2-4.334 4.333v78.667c0 2.333 2 4.333 4.334 4.333h1292.666c2.333 0 4.333-2 4.333-4.333V1391z" fill="#003299"/></svg>
