<svg xmlns="http://www.w3.org/2000/svg" viewBox="0 0 1473.852 1473.833" height="1473.833" width="1473.852" version="1"><path d="M358.793 1131.667c93 0 187-31.334 187-90.667V815c0-59.333-94-90.667-187-90.667-92.667 0-186.667 31-186.667 90.667v226c0 59.333 94 90.667 186.667 90.667zm0-354.667c89.666 0 133.333 29.333 134 38-.667 8.667-44 38-134 38-89.667 0-133-29.333-134-38 1-8.667 44.333-38 134-38zm-134 103c35.666 17 85 25.667 134 25.667 49.333 0 98.333-8.667 134-25.667v10.333c-.667 8.667-44 37.667-134 37.667-89.667 0-133-29-134-37.667zm0 75.333c35.666 17 85 25.667 134 25.667 49.333 0 98.333-8.667 134-25.667v10.334c-.667 8.666-44 37.666-134 37.666-89.667 0-133-29-134-37.666zm0 75.334c35.666 17 85 25.666 134 25.666 49.333 0 98.333-8.666 134-25.666V1041c-.667 8.667-44 38-134 38-89.667 0-133-29.333-134-38zm199.333-529c-1-.334-1.667-1.667-1.667-1.667l-60-104.333s-1-1.334-.666-2.334c.333-1.333 1.666-1.666 1.666-1.666l677-391s1.334-.667 2.334-.667c1 .333 2 1.667 2 1.667l260.333 451s.667 1 .333 1.333c0 .333-.666.667-.666.667l-176 101.666s-.334.334-.667 0l-.333-.666-13.667-50.334s-.333-1 0-1.333c0-.333.667-.667.667-.667l117.333-67.666s.667-.334 1-1c.333-.667-.333-1.334-.333-1.334l-208.334-361s0-.333-.666-.333c-.667-.333-1 0-1 0L768.126 219s-.667.333-1 1c0 .667.333 1 .333 1l49.334 84.667c3.666 6.333 4.666 13.666 2.666 20.666-2 6.667-6.333 12.667-12.666 16-19.334 11.334-32.667 29-39.334 48.667 0 .667 0 .667-.666 1.333-.667.667-1.667.667-1.667.667l-48.667 13s-5.666 1.667-6.333 1c-.667-.667 0-4.667.667-7.667 4.333-32.333 20-63.333 45.333-86 .667-.333 1.333-1 1.667-1.666.333-.667-1-2-1-2l-35.334-61s-.333-1-1.333-1.334c-.667-.333-2 .667-2 .667L434.793 411.667s-1 .333-1.334 1c0 .666.667 1.666.667 1.666L475.46 486s1 1.333.667 2c-.333.667-1.333 1-1.333 1l-48 12.667s-1.334.333-2.667 0zm1049.333 196l-385.666 774.666c-1 2-3 2-4 0l-188-341.666c-1.334-2.334-3.334-2.334-5-.334l-98.334 128c-1.666 1.667-4.666 2.667-7 2l-142.666-49c-2.334-.666-5.334.334-6.667 2.334L521.46 1375c-1.333 2-4 2-5.333.333L372.46 1221c-1.666-1.667-4.666-2.333-7-1.333L234.793 1278c-2 1-5.667 1-7.667-.333L2.126 1153c-2-1.333-2.667-4-1.667-6l16.667-30.667c1.333-2 3.667-2.666 6-1.666l206 114.333c2 1.333 5.667 1.333 7.667.667l139.333-62.334c2.333-1 5.333-.333 7 1.334l128.333 138c1.667 1.666 4 1.666 5.334-.334l102.666-144.666c1.334-2 4.334-3 6.667-2l144 49.333c2.333.667 5.333-.333 7-2l120-156.333c1.667-1.667 3.667-1.667 5 .333l180 327.667c1.333 2.333 3 2 4 0L1434.46 678c1-2.333 3.667-3 5.667-2l31.333 15.667c2 1 3 3.666 2 6zM328.126 699s19-1 30.667-1c6.333 0 14.333.333 14.333.333 2.333 0 4-2 3.333-4.666l-23-85.667c-.666-2.333 1-5 3.334-5.667l313-84 19.666 72c-60 29.334-92.666 97.667-75 164.334 18 66.666 80.334 109.333 147 104.666l17.334 64.334-202 54.333c-2.667.667-4.667 3.333-4.667 5.667V1029c0 2.667 2 4 4.667 3.333L1180.126 871c2.667-.667 4-3.333 3.333-6l-133.666-498.333c-.667-2.334-3.334-4-5.667-3.334L292.126 565c-2.667.667-4 3-3.333 5.667l33.333 124c.667 2.666 3.333 4.666 6 4.333zm419.333-99.333l-26-95.334L1006.793 428c2.666-.667 5 1 5.666 3.333l106.334 396.334c.666 2.666-.667 5-3.334 5.666l-285 76.334L807.126 822c-3.667-14.333-18.333-23-33-19-46.667 12.667-95.333-15.333-108-62.333-12.667-47 15.333-95.334 62.333-108 7-1.667 13-6.334 16.334-12.334 3.666-6.333 4.666-13.666 2.666-20.666z" fill="#003299"/></svg>
