<svg xmlns="http://www.w3.org/2000/svg" viewBox="0 0 1139.667 1474" height="1474" width="1139.667" version="1"><path d="M132.667 312.333c30.666 615.334 309 904 434.333 1003.334 1.333 1 3.333 1 5 0 49.667-39.667 123.667-109.334 196.667-217 143-211.334 223-475.334 238-786.334 0-2.333-1.334-4.333-3.667-4.666-219-46-352.333-102-431.333-147.667-1.334-.667-2.667-.667-3.667 0-79.333 45.667-212.333 101.667-431.667 147.667-2 .333-3.666 2.333-3.666 4.666zm434.333 945c-124.333-110-351.333-380.666-387.667-909.666 0-2.334 1.334-4 3.334-4.667C365 302.333 487 254.667 568 211.333c1-.666 2.333-.666 3.667 0 80.666 43.334 202.666 91 384.666 131.667 2.334.667 4 2.667 3.667 5-36 529-263 799.333-387.667 909.333-1.333 1.334-3.666 1.334-5.333 0z" fill="#003299"/><path d="M1135.667 200.333c-421.667-72.333-543.334-179-563-199C572 .333 571 0 569.667 0c-1 0-2 .333-3 1.333-19.667 20-141.334 126.667-563 199C1.667 200.667 0 202.667 0 205c1.333 931.667 528.667 1249 568 1268.667.667 0 1 .333 1.667.333.666 0 1.333-.333 2-.333 39-19.667 566.333-337 568-1268.667 0-2.333-1.667-4.333-4-4.667zm-335.334 927.334c-89 130.333-178.333 206-228 241.666-1.666 1.334-3.666 1.334-5 0-49.666-35.666-139-111.333-228.333-241.666C183.667 901 99.333 615 88.333 277.333c0-2 1.667-4 3.667-4.333 260.333-51 401.333-115 475.667-162.667 1.333-.666 3-.666 4.333 0C646 158 787 221.667 1047.333 273c2 .333 3.667 2.333 3.667 4.667-11 337.666-95 623.333-250.667 850z" fill="#003299"/></svg>
