<svg xmlns="http://www.w3.org/2000/svg" width="421.686" height="531" viewBox="0 0 421.686 531">
  <g transform="translate(-195.672,-189)">
    <path d="M318.012,453.172c-60.794,0-122.34,20.4-122.34,59.389v148.05c0,38.99,61.547,59.389,122.34,59.389s122.34-20.4,122.34-59.389V512.561C440.353,473.571,378.806,453.172,318.012,453.172ZM405.76,660.6c-.542,5.778-28.954,24.808-87.748,24.808s-87.205-19.03-87.748-24.8V653.85c23.349,11.108,55.65,16.8,87.748,16.8s64.4-5.692,87.748-16.8Zm0-49.35c-.542,5.778-28.954,24.808-87.748,24.808s-87.205-19.03-87.748-24.808V604.5c23.349,11.108,55.65,16.8,87.748,16.8s64.4-5.692,87.748-16.8Zm0-49.35c-.542,5.778-28.954,24.808-87.748,24.808s-87.205-19.03-87.748-24.808V555.15c23.349,11.108,55.65,16.8,87.748,16.8s64.4-5.692,87.748-16.8Zm-87.748-24.542c-58.794,0-87.205-19.03-87.748-24.8.542-5.778,28.954-24.808,87.748-24.808,58.776,0,87.188,19.018,87.748,24.8C405.2,518.345,376.788,537.363,318.012,537.363Z" fill="#003299"/>
    <path d="M617.236,556.05c-2.575-37.361-62.738-56.9-122.218-56.9a263.323,263.323,0,0,0-38.73,2.879,53.592,53.592,0,0,1,1.058,10.53v24.128a228.531,228.531,0,0,1,37.672-2.95c58.776,0,87.188,19.018,87.748,24.8-.56,5.784-28.972,24.8-87.748,24.8a228.531,228.531,0,0,1-37.672-2.95v34.874a264.152,264.152,0,0,0,37.672,2.7c32.1,0,64.4-5.692,87.748-16.8v6.753c-.542,5.778-28.954,24.808-87.748,24.808a228.531,228.531,0,0,1-37.672-2.95v30.827c0,1.36-.079,2.689-.173,4.012a264.369,264.369,0,0,0,37.845,2.7c60.794,0,122.34-20.4,122.34-59.389V556.05Z" fill="#003299"/>
    <path d="M551.871,487.975V248.389c0-38.99-61.547-59.389-122.34-59.389s-122.34,20.4-122.34,59.389V436.4c3.615-.138,7.227-.221,10.823-.221,34.142,0,69.59,6.2,96.2,19.193,5.091.289,10.2.486,15.32.486,32.1,0,64.4-5.692,87.748-16.8v6.292c-.519,5.535-26.68,23.177-80.532,24.663A65.144,65.144,0,0,1,450,485.716a281.638,281.638,0,0,1,45.015-3.557A272.542,272.542,0,0,1,551.871,487.975ZM429.531,223.587c58.776,0,87.188,19.018,87.748,24.8-.56,5.784-28.972,24.8-87.748,24.8-58.794,0-87.205-19.03-87.748-24.8C342.325,242.617,370.737,223.587,429.531,223.587Zm-87.748,72.334v-4.943c23.349,11.108,55.648,16.8,87.748,16.8s64.4-5.692,87.748-16.8v6.755c-.542,5.778-28.954,24.808-87.748,24.808s-87.205-19.03-87.748-24.808Zm0,44.435c23.349,11.108,55.648,16.8,87.748,16.8s64.4-5.692,87.748-16.8v6.755c-.542,5.778-28.954,24.808-87.748,24.808s-87.205-19.03-87.748-24.808Zm87.748,80.451c-58.794,0-87.205-19.03-87.748-24.808v-6.292c23.349,11.108,55.648,16.8,87.748,16.8s64.4-5.692,87.748-16.8V396C516.736,401.777,488.324,420.807,429.531,420.807Z" fill="#003299"/>
  </g>
</svg>
