<?xml version="1.0" encoding="utf-8"?>
<!-- Generator: Adobe Illustrator 16.0.0, SVG Export Plug-In . SVG Version: 6.00 Build 0)  -->
<!DOCTYPE svg PUBLIC "-//W3C//DTD SVG 1.1//EN" "http://www.w3.org/Graphics/SVG/1.1/DTD/svg11.dtd">
<svg version="1.1" id="Ebene_1" xmlns="http://www.w3.org/2000/svg" xmlns:xlink="http://www.w3.org/1999/xlink" x="0px" y="0px"
	 width="115.224px" height="112.239px" viewBox="0 0 115.224 112.239" enable-background="new 0 0 115.224 112.239"
	 xml:space="preserve">
<g>
	<defs>
		<rect id="SVGID_1_" x="0.806" y="1.119" width="113.47" height="110.497"/>
	</defs>
	<clipPath id="SVGID_2_">
		<use xlink:href="#SVGID_1_"  overflow="visible"/>
	</clipPath>
	<path clip-path="url(#SVGID_2_)" fill="#003399" d="M37.812,53.75c0,1.039-0.827,1.884-1.845,1.884s-1.846-0.846-1.846-1.884
		c0-1.039,0.828-1.884,1.846-1.884S37.812,52.711,37.812,53.75 M25.513,53.75c0,1.039-0.828,1.884-1.846,1.884
		c-1.016,0-1.844-0.846-1.844-1.884c0-1.039,0.828-1.884,1.844-1.884C24.685,51.866,25.513,52.711,25.513,53.75 M40.885,53.75
		c0-2.769-2.206-5.021-4.917-5.021c-2.172,0-3.998,1.454-4.646,3.451h-3.007c-0.649-1.997-2.476-3.451-4.647-3.451
		c-2.71,0-4.917,2.252-4.917,5.021s2.206,5.021,4.917,5.021c2.172,0,3.998-1.455,4.647-3.451h3.007
		c0.648,1.996,2.475,3.451,4.646,3.451C38.679,58.771,40.885,56.519,40.885,53.75"/>
	<path clip-path="url(#SVGID_2_)" fill="#003399" d="M44.448,66.073c-0.127-0.43-0.514-0.723-0.953-0.725
		c-0.491-0.004-1.926-0.137-2.652-0.713c-1.492-1.18-2.42-2.066-3.166-2.779c-1.094-1.042-1.816-1.732-3.148-2.173
		c-0.627-0.209-1.344-0.312-2.133-0.312c-1.153,0-2.164,0.223-2.578,0.33c-0.413-0.107-1.424-0.33-2.578-0.33
		c-0.788,0-1.506,0.104-2.133,0.312c-1.332,0.441-2.055,1.131-3.149,2.175c-0.745,0.713-1.674,1.598-3.163,2.777
		c-0.729,0.576-2.163,0.709-2.655,0.713c-0.439,0.002-0.825,0.295-0.952,0.725c-0.127,0.432,0.034,0.893,0.399,1.145
		c0.109,0.074,2.714,1.836,6.018,1.836h0.001c1.539,0,2.985-0.381,4.299-1.133c2.024-1.158,3.219-2.844,3.913-4.277
		c0.695,1.434,1.889,3.119,3.914,4.277c1.314,0.752,2.761,1.133,4.3,1.133c3.304,0,5.909-1.762,6.019-1.836
		C44.414,66.965,44.574,66.502,44.448,66.073"/>
	<path clip-path="url(#SVGID_2_)" fill="#003399" d="M29.817,25.91c12.051,0,21.854,11.07,21.854,24.678
		c0,13.606-9.803,24.676-21.854,24.676c-12.05,0-21.854-11.07-21.854-24.676C7.963,36.98,17.768,25.91,29.817,25.91 M58.686,41.155
		c-0.826-8.033-7.649-14.133-18.888-17.097c-3.074-1.436-6.444-2.234-9.98-2.234c-3.502,0-6.841,0.787-9.89,2.198
		C8.605,26.972,1.729,33.088,0.898,41.155c-0.445,4.328,0.724,8.733,3.195,12.281C5.384,67.963,16.426,79.35,29.817,79.35
		c13.415,0,24.471-11.428,25.729-25.991C57.979,49.825,59.128,45.451,58.686,41.155"/>
	<path clip-path="url(#SVGID_2_)" fill="#003399" d="M95.616,40.928c-1.018,0-1.846,0.845-1.846,1.884s0.828,1.884,1.846,1.884
		s1.844-0.845,1.844-1.884S96.633,40.928,95.616,40.928 M83.315,40.928c-1.018,0-1.844,0.845-1.844,1.884s0.826,1.884,1.844,1.884
		s1.846-0.845,1.846-1.884S84.333,40.928,83.315,40.928 M95.616,47.834c-2.186,0-4.02-1.473-4.66-3.491h-2.982
		c-0.639,2.018-2.473,3.491-4.658,3.491c-2.711,0-4.916-2.253-4.916-5.022s2.205-5.022,4.916-5.022c2.158,0,3.975,1.437,4.635,3.416
		h3.029c0.662-1.979,2.479-3.416,4.637-3.416c2.711,0,4.916,2.253,4.916,5.022S98.327,47.834,95.616,47.834 M109.993,38.679
		c0.062,0,0.123-0.006,0.186-0.007c-0.99,14.192-10.936,22.6-20.582,22.6c-8.529,0-17.605-6.909-20.193-18.447
		c4.68-2.788,9.873-7.663,12.451-14.197c9.074,6.583,18.764,10.051,28.137,10.051H109.993z M114.264,36.349
		c0.006-0.184,0.012-0.369,0.012-0.601c0-10.383-5.529-19.366-13.533-23.703c-0.262-2.919-1.52-5.682-3.553-7.713
		c-2.137-2.135-4.898-3.275-7.754-3.21c-6.004,0.135-10.914,5.166-11.262,11.353c-7.922,4.553-13.383,13.484-13.508,23.668h-0.012
		c0,0.052,0.006,0.103,0.006,0.155c0,0.066-0.006,0.131-0.006,0.197c0,0.82,0.045,1.559,0.113,2.259
		c1.133,14.889,11.828,26.604,24.828,26.604c13.84,0,24.68-12.742,24.68-29.009H114.264z"/>
	<path clip-path="url(#SVGID_2_)" fill="#003399" d="M67.727,84.299c-8.794,0-13.042-2.846-13.124-3.709
		c0.081-0.863,4.33-3.711,13.124-3.711c8.789,0,13.039,2.846,13.123,3.709C80.766,81.456,76.516,84.299,67.727,84.299z
		 M80.85,87.971c-0.082,0.863-4.33,3.709-13.123,3.709c-8.794,0-13.042-2.846-13.124-3.709v-1.012
		c3.492,1.662,8.321,2.514,13.124,2.514c4.799,0,9.631-0.852,13.123-2.514V87.971z M80.85,95.352
		c-0.082,0.863-4.33,3.709-13.123,3.709c-8.794,0-13.042-2.846-13.124-3.709V94.34c3.492,1.662,8.321,2.514,13.124,2.514
		c4.799,0,9.631-0.852,13.123-2.514V95.352z M80.85,102.731c-0.082,0.865-4.33,3.711-13.123,3.711
		c-8.794,0-13.042-2.846-13.124-3.709v-1.01c3.492,1.66,8.321,2.512,13.124,2.512c4.799,0,9.631-0.852,13.123-2.512V102.731z
		 M67.727,71.709c-9.093,0-18.297,3.051-18.297,8.881v22.143c0,5.832,9.204,8.883,18.297,8.883c9.092,0,18.297-3.051,18.297-8.883
		V80.59C86.024,74.76,76.819,71.709,67.727,71.709"/>
</g>
</svg>
