<svg xmlns="http://www.w3.org/2000/svg" viewBox="0 0 1474 1474.333" height="1474.333" width="1474" version="1"><path d="M737 0C330 0 0 330 0 737c0 407.333 330 737.333 737 737.333S1474 1144 1474 737c0-407-330-737-737-737zm0 1387c-358.333 0-650-291.667-650-650S378.667 87 737 87s650 291.667 650 650-291.667 650-650 650z" fill="#003299"/><path d="M1083.667 737c0-79.333-6-155.667-16.667-227.333h232.667c-12.334-30.334-26.667-59.334-43.667-87.334h-205.333c-21.334-96.666-52.667-181.666-91-249.666-41.667-16.667-86-29-132-35.667 52 54.333 102 152.333 134 285.333H512.333c32-133.333 82-231 134-285.333-46 6.667-90 19-132 35.667-38.333 68-69.333 153-91 249.666H218c-17 27.667-31.333 57-43.667 87.334H407c-10.667 71.666-16.667 148-16.667 227.333s6 155.667 16.667 227.333H174.333c12.334 30.334 26.667 59.334 43.667 87.334h205.333c21.334 96.666 52.667 181.666 91 249.666 41.667 16.667 86 29 132 35.667-52-54.333-102-152.333-134-285.333h449.334c-32 133.333-82 231-134 285.333 46-6.667 90-19 132-35.667 38.333-68 69.333-153 91-249.666H1256c17-27.667 31.333-57 43.667-87.334H1067c11-71.666 16.667-148 16.667-227.333zM979 964.333H495C483.667 895.667 477.333 819.667 477.333 737S483.667 578.333 495 509.667h484c11.333 69 17.667 144.666 17.667 227.333S990.333 895.667 979 964.333z" fill="#003299"/></svg>
