<svg xmlns="http://www.w3.org/2000/svg" viewBox="0 0 1471.536 1474" height="1474" width="1471.536" version="1"><path d="M739.019 1c-1.667-1.333-4.667-1.333-6.667 0L1.02 646.333c-1.667 1.667-1.334 3 1.333 3h1467c2.333 0 3-1.333 1-3zm-6.667 116.667c2-1.667 4.667-1.667 6.667 0l500.333 441.666c1.667 1.667 1.333 3-1 3H233.019c-2.334 0-3-1.333-1-3zM1125.685 697c0-2.333 2-4.333 4.667-4.333h78.333c2.334 0 4.334 2 4.334 4.333v772.667c0 2.333-2 4.333-4.334 4.333h-946c-2.333 0-4.333-2-4.333-4.333V697c0-2.333 2-4.333 4.333-4.333h78.334c2.666 0 4.666 2 4.666 4.333v685.333c0 2.667 2 4.667 4.334 4.667h771.666c2.334 0 4.334-2 4.334-4.667L1125.685 697zm-256 646.667c-2.333 0-4.333-2-4.333-4.334v-338c0-2.333-2-4.333-4.333-4.333H610.352c-2.333 0-4.333 2-4.333 4.333v338.334c0 2.333-2 4.333-4.334 4.333H523.02c-2.667 0-4.667-2-4.667-4.333V914.333c0-2.666 2-4.666 4.667-4.666h425.333c2.333 0 4.333 2 4.333 4.666v425.334c0 2.333-2 4.333-4.333 4.333l-78.667-.333z" fill="#003299"/></svg>
