<?xml version="1.0" encoding="UTF-8" standalone="no"?>
<svg width="12px" height="14px" viewBox="0 0 12 14" version="1.1" xmlns="http://www.w3.org/2000/svg" xmlns:xlink="http://www.w3.org/1999/xlink">
    <!-- Generator: Sketch 50.2 (55047) - http://www.bohemiancoding.com/sketch -->
    <title>reset</title>
    <desc>Created with Sketch.</desc>
    <defs></defs>
    <g id="Welcome" stroke="none" stroke-width="1" fill="none" fill-rule="evenodd">
        <g id="Desktop-Wide-Screen-Trends-time-zoom" transform="translate(-1020.000000, -699.000000)">
            <g id="Group-7" transform="translate(957.000000, 696.000000)">
                <g id="Reset-dünn" transform="translate(63.000000, 3.000000)">
                    <path d="M8.5787,2.9746 C7.7297,2.3106 6.6617,1.9146 5.4997,1.9146 C2.7387,1.9146 0.4997,4.1536 0.4997,6.9146 C0.4997,7.5736 0.6277,8.2036 0.8597,8.7806" id="Stroke-1" stroke="#FFFFFF" stroke-width="1"></path>
                    <polygon id="Fill-3" fill="#FFFFFF" fill-rule="evenodd" points="7.7634 0.0001 5.9464 4.4311 9.1014 3.1001"></polygon>
                    <path d="M2.8292,10.4283 C3.6292,11.1503 4.6682,11.6193 5.8262,11.7003 C8.5812,11.8933 10.9702,9.8163 11.1632,7.0613 C11.2092,6.4033 11.1252,5.7663 10.9342,5.1753" id="Stroke-4" stroke="#FFFFFF" stroke-width="1"></path>
                    <polygon id="Fill-6" fill="#FFFFFF" fill-rule="evenodd" points="2.3166 10.2664 3.4346 13.4524 5.5576 9.1594"></polygon>
                </g>
            </g>
        </g>
    </g>
</svg>