<?xml version="1.0" encoding="UTF-8" standalone="no"?>
<svg width="40px" height="40px" viewBox="0 0 40 40" version="1.1" xmlns="http://www.w3.org/2000/svg" xmlns:xlink="http://www.w3.org/1999/xlink">
    <!-- Generator: Sketch 50.2 (55047) - http://www.bohemiancoding.com/sketch -->
    <title>subscribe_new</title>
    <desc>Created with Sketch.</desc>
    <defs></defs>
    <g id="Welcome" stroke="none" stroke-width="1" fill="none" fill-rule="evenodd">
        <g id="WideScreenProjektseite_Flow_Single" transform="translate(-1249.000000, -30.000000)">
            <g id="Header-Wide-Screen">
                <g id="subscribe_new" transform="translate(1249.000000, 30.000000)">
                    <polygon id="Fill-1" fill="#5EBDE2" points="0 40 40 40 40 0 0 0"></polygon>
                    <g id="Group-6" transform="translate(6.857143, 6.857143)">
                        <path d="M24.3643429,7.79497143 C23.9026286,6.40068571 23.1917714,5.20525714 22.2306286,4.21097143 C21.2694857,3.21668571 20.0694857,2.4464 18.6329143,1.90011429 C17.1952,1.35268571 15.5403429,1.07954286 13.6660571,1.07954286 C11.7906286,1.07954286 10.0923429,1.38925714 8.56891429,2.00982857 C7.04434286,2.62925714 5.73462857,3.48754286 4.63977143,4.58582857 C3.54377143,5.68297143 2.68091429,6.98354286 2.0512,8.4864 C1.42148571,9.98811429 1.06377143,11.6224 0.976914286,13.3869714 C0.890057143,15.2978286 1.09234286,16.9904 1.58262857,18.4624 C2.07291429,19.9344 2.81577143,21.1698286 3.81005714,22.1686857 C4.80548571,23.1675429 6.04548571,23.9252571 7.53005714,24.4418286 C9.01577143,24.9584 10.7094857,25.2166857 12.6134857,25.2166857 C13.0546286,25.2166857 13.5232,25.1926857 14.0192,25.1446857 C14.5140571,25.0978286 14.9997714,25.0269714 15.4752,24.9321143 C15.9506286,24.8372571 16.4054857,24.7184 16.8374857,24.5766857 C17.2706286,24.4349714 17.6546286,24.2646857 17.9917714,24.0669714 L17.4432,22.0784 C17.1357714,22.2075429 16.7940571,22.3252571 16.4192,22.4326857 C16.0443429,22.5401143 15.6477714,22.6338286 15.2294857,22.7104 C14.8123429,22.7881143 14.3837714,22.8486857 13.9472,22.8921143 C13.5094857,22.9344 13.0843429,22.9561143 12.6706286,22.9561143 C11.1906286,22.9561143 9.88091429,22.7515429 8.74148571,22.3424 C7.60205714,21.9332571 6.65577143,21.3241143 5.90148571,20.5149714 C5.14605714,19.7058286 4.58834286,18.7069714 4.22834286,17.5195429 C3.86834286,16.3309714 3.72548571,14.9538286 3.8032,13.3869714 C3.87977143,11.9229714 4.15634286,10.5675429 4.63177143,9.3184 C5.10834286,8.0704 5.76662857,6.99268571 6.60777143,6.08411429 C7.44891429,5.17554286 8.45805714,4.46582857 9.6352,3.95268571 C10.8123429,3.44068571 12.1369143,3.18468571 13.6077714,3.18468571 C15.1746286,3.18468571 16.5277714,3.4064 17.6672,3.84982857 C18.8054857,4.29325714 19.7357714,4.92182857 20.4569143,5.73554286 C21.1780571,6.54925714 21.6946286,7.52982857 22.0066286,8.67954286 C22.3186286,9.82925714 22.4374857,11.1138286 22.3597714,12.5344 C22.3312,13.2406857 22.2374857,13.8989714 22.0786286,14.5104 C21.9197714,15.1218286 21.7014857,15.6532571 21.4226286,16.1046857 C21.1437714,16.5572571 20.8146286,16.9126857 20.4352,17.1709714 C20.0557714,17.4292571 19.6294857,17.5584 19.1586286,17.5584 C18.9472,17.5584 18.7414857,17.5275429 18.5392,17.4681143 C18.3369143,17.4075429 18.1597714,17.3001143 18.0054857,17.1446857 C17.8512,16.9904 17.7392,16.7766857 17.6672,16.5058286 C17.5952,16.2338286 17.5872,15.8841143 17.6454857,15.4532571 L18.3803429,7.98811429 C18.0923429,7.80754286 17.8032,7.63154286 17.5152,7.45897143 C17.2272,7.28754286 16.9117714,7.13668571 16.5712,7.00754286 C16.2294857,6.8784 15.8477714,6.7744 15.4249143,6.69782857 C15.0020571,6.62011429 14.5117714,6.58125714 13.9540571,6.58125714 C13.1083429,6.58125714 12.3072,6.75154286 11.5529143,7.09097143 C10.7986286,7.43154286 10.1254857,7.91611429 9.53462857,8.54354286 C8.94377143,9.17211429 8.44777143,9.93211429 8.04891429,10.8235429 C7.65005714,11.7149714 7.38377143,12.7115429 7.24891429,13.8132571 C7.15291429,14.6909714 7.18148571,15.4852571 7.33577143,16.1961143 C7.48891429,16.9058286 7.74834286,17.5126857 8.11405714,18.0166857 C8.47977143,18.5206857 8.93805714,18.9092571 9.4912,19.1846857 C10.0443429,19.4601143 10.6706286,19.5984 11.3734857,19.5984 C12.1232,19.5984 12.8169143,19.4475429 13.4569143,19.1469714 C14.0957714,18.8452571 14.6557714,18.3926857 15.1357714,17.7904 C15.4443429,18.3846857 15.8980571,18.8406857 16.4992,19.1595429 C17.0992,19.4772571 17.8134857,19.6372571 18.6397714,19.6372571 C19.3700571,19.6372571 20.0317714,19.5401143 20.6226286,19.3469714 C21.2134857,19.1526857 21.7380571,18.8886857 22.1940571,18.5526857 C22.6512,18.2166857 23.0477714,17.8189714 23.3837714,17.3584 C23.7197714,16.8978286 23.9986286,16.4006857 24.2203429,15.8658286 C24.4409143,15.3321143 24.6089143,14.7755429 24.7243429,14.1938286 C24.8397714,13.6132571 24.9117714,13.0292571 24.9414857,12.4441143 C25.0180571,10.7389714 24.8260571,9.18925714 24.3643429,7.79497143 M11.6397714,10.1195429 C12.2500571,9.27611429 13.1083429,8.8544 14.2134857,8.8544 C14.4249143,8.8544 14.6272,8.86925714 14.8192,8.89897143 C15.0112,8.92982857 15.1940571,8.96982857 15.3666286,9.02125714 L14.7609143,15.1298286 C14.5883429,15.5606857 14.4009143,15.9138286 14.1986286,16.1892571 C13.9974857,16.4646857 13.7883429,16.6841143 13.5723429,16.8475429 C13.3552,17.0109714 13.1437714,17.1252571 12.9369143,17.1904 C12.7300571,17.2544 12.5403429,17.2864 12.3677714,17.2864 C11.6374857,17.2864 11.1083429,16.9915429 10.7814857,16.4018286 C10.4546286,15.8121143 10.3437714,14.9492571 10.4500571,13.8132571 C10.6329143,12.1949714 11.0294857,10.9629714 11.6397714,10.1195429" id="Fill-2" fill="#FEFEFE"></path>
                        <path d="M24.3643429,7.79497143 C23.9026286,6.40068571 23.1917714,5.20525714 22.2306286,4.21097143 C21.2694857,3.21668571 20.0694857,2.4464 18.6329143,1.90011429 C17.1952,1.35268571 15.5403429,1.07954286 13.6660571,1.07954286 C11.7906286,1.07954286 10.0923429,1.38925714 8.56891429,2.00982857 C7.04434286,2.62925714 5.73462857,3.48754286 4.63977143,4.58582857 C3.54377143,5.68297143 2.68091429,6.98354286 2.0512,8.4864 C1.42148571,9.98811429 1.06377143,11.6224 0.976914286,13.3869714 C0.890057143,15.2978286 1.09234286,16.9904 1.58262857,18.4624 C2.07291429,19.9344 2.81577143,21.1698286 3.81005714,22.1686857 C4.80548571,23.1675429 6.04548571,23.9252571 7.53005714,24.4418286 C9.01577143,24.9584 10.7094857,25.2166857 12.6134857,25.2166857 C13.0546286,25.2166857 13.5232,25.1926857 14.0192,25.1446857 C14.5140571,25.0978286 14.9997714,25.0269714 15.4752,24.9321143 C15.9506286,24.8372571 16.4054857,24.7184 16.8374857,24.5766857 C17.2706286,24.4349714 17.6546286,24.2646857 17.9917714,24.0669714 L17.4432,22.0784 C17.1357714,22.2075429 16.7940571,22.3252571 16.4192,22.4326857 C16.0443429,22.5401143 15.6477714,22.6338286 15.2294857,22.7104 C14.8123429,22.7881143 14.3837714,22.8486857 13.9472,22.8921143 C13.5094857,22.9344 13.0843429,22.9561143 12.6706286,22.9561143 C11.1906286,22.9561143 9.88091429,22.7515429 8.74148571,22.3424 C7.60205714,21.9332571 6.65577143,21.3241143 5.90148571,20.5149714 C5.14605714,19.7058286 4.58834286,18.7069714 4.22834286,17.5195429 C3.86834286,16.3309714 3.72548571,14.9538286 3.8032,13.3869714 C3.87977143,11.9229714 4.15634286,10.5675429 4.63177143,9.3184 C5.10834286,8.0704 5.76662857,6.99268571 6.60777143,6.08411429 C7.44891429,5.17554286 8.45805714,4.46582857 9.6352,3.95268571 C10.8123429,3.44068571 12.1369143,3.18468571 13.6077714,3.18468571 C15.1746286,3.18468571 16.5277714,3.4064 17.6672,3.84982857 C18.8054857,4.29325714 19.7357714,4.92182857 20.4569143,5.73554286 C21.1780571,6.54925714 21.6946286,7.52982857 22.0066286,8.67954286 C22.3186286,9.82925714 22.4374857,11.1138286 22.3597714,12.5344 C22.3312,13.2406857 22.2374857,13.8989714 22.0786286,14.5104 C21.9197714,15.1218286 21.7014857,15.6532571 21.4226286,16.1046857 C21.1437714,16.5572571 20.8146286,16.9126857 20.4352,17.1709714 C20.0557714,17.4292571 19.6294857,17.5584 19.1586286,17.5584 C18.9472,17.5584 18.7414857,17.5275429 18.5392,17.4681143 C18.3369143,17.4075429 18.1597714,17.3001143 18.0054857,17.1446857 C17.8512,16.9904 17.7392,16.7766857 17.6672,16.5058286 C17.5952,16.2338286 17.5872,15.8841143 17.6454857,15.4532571 L18.3803429,7.98811429 C18.0923429,7.80754286 17.8032,7.63154286 17.5152,7.45897143 C17.2272,7.28754286 16.9117714,7.13668571 16.5712,7.00754286 C16.2294857,6.8784 15.8477714,6.7744 15.4249143,6.69782857 C15.0020571,6.62011429 14.5117714,6.58125714 13.9540571,6.58125714 C13.1083429,6.58125714 12.3072,6.75154286 11.5529143,7.09097143 C10.7986286,7.43154286 10.1254857,7.91611429 9.53462857,8.54354286 C8.94377143,9.17211429 8.44777143,9.93211429 8.04891429,10.8235429 C7.65005714,11.7149714 7.38377143,12.7115429 7.24891429,13.8132571 C7.15291429,14.6909714 7.18148571,15.4852571 7.33577143,16.1961143 C7.48891429,16.9058286 7.74834286,17.5126857 8.11405714,18.0166857 C8.47977143,18.5206857 8.93805714,18.9092571 9.4912,19.1846857 C10.0443429,19.4601143 10.6706286,19.5984 11.3734857,19.5984 C12.1232,19.5984 12.8169143,19.4475429 13.4569143,19.1469714 C14.0957714,18.8452571 14.6557714,18.3926857 15.1357714,17.7904 C15.4443429,18.3846857 15.8980571,18.8406857 16.4992,19.1595429 C17.0992,19.4772571 17.8134857,19.6372571 18.6397714,19.6372571 C19.3700571,19.6372571 20.0317714,19.5401143 20.6226286,19.3469714 C21.2134857,19.1526857 21.7380571,18.8886857 22.1940571,18.5526857 C22.6512,18.2166857 23.0477714,17.8189714 23.3837714,17.3584 C23.7197714,16.8978286 23.9986286,16.4006857 24.2203429,15.8658286 C24.4409143,15.3321143 24.6089143,14.7755429 24.7243429,14.1938286 C24.8397714,13.6132571 24.9117714,13.0292571 24.9414857,12.4441143 C25.0180571,10.7389714 24.8260571,9.18925714 24.3643429,7.79497143 Z M11.6397714,10.1195429 C12.2500571,9.27611429 13.1083429,8.8544 14.2134857,8.8544 C14.4249143,8.8544 14.6272,8.86925714 14.8192,8.89897143 C15.0112,8.92982857 15.1940571,8.96982857 15.3666286,9.02125714 L14.7609143,15.1298286 C14.5883429,15.5606857 14.4009143,15.9138286 14.1986286,16.1892571 C13.9974857,16.4646857 13.7883429,16.6841143 13.5723429,16.8475429 C13.3552,17.0109714 13.1437714,17.1252571 12.9369143,17.1904 C12.7300571,17.2544 12.5403429,17.2864 12.3677714,17.2864 C11.6374857,17.2864 11.1083429,16.9915429 10.7814857,16.4018286 C10.4546286,15.8121143 10.3437714,14.9492571 10.4500571,13.8132571 C10.6329143,12.1949714 11.0294857,10.9629714 11.6397714,10.1195429 Z" id="Stroke-4" stroke="#FEFEFE" stroke-width="0.5"></path>
                    </g>
                </g>
            </g>
        </g>
    </g>
</svg>